M48
;Layer_Color=9474304
;FILE_FORMAT=4:4
METRIC,LZ
;TYPE=PLATED
T1F00S00C0.3000
T2F00S00C1.2000
T3F00S00C1.8000
%
T01
X0131Y026
X01335
X01322Y02622
X01335Y0265
X0136
X01385
X013725Y02675
X013475
X0136Y027
X01335
X0131
Y0275
X01335
X0136
X01385
X0141
X01435
X0146
X01485
X0151
X015225Y02775
X014975
Y02725
X015225
X0151Y027
X015225Y02675
X014975
X0151Y0265
X01485
X014975Y02625
X015225
X0151Y026
X01485
X014725Y02625
X01451Y02633
X01429Y02623
X01435Y027
X01463Y02705
X014475Y02775
X013975Y02725
X013725
X013475
X013225Y02775
X01335Y028
X0131
X013225Y02825
X013475
X013725
X013975
X014225
X014475
X014725
X014975
X0151Y028
X01486Y02796
X01462Y02783
X01382Y02795
T02
X0129967Y0265626
X01300178Y02766242
T03
X014Y02686
Y02735
M30
