G04*
G04 #@! TF.GenerationSoftware,Altium Limited,Altium Designer,21.6.1 (37)*
G04*
G04 Layer_Color=32896*
%FSLAX44Y44*%
%MOMM*%
G71*
G04*
G04 #@! TF.SameCoordinates,93393DDD-FF44-4B5B-861E-5619158EEE6E*
G04*
G04*
G04 #@! TF.FilePolarity,Positive*
G04*
G01*
G75*
%ADD33C,0.1800*%
%ADD34C,0.3000*%
D33*
X1473520Y2840417D02*
X1474853Y2841750D01*
X1477519D01*
X1478852Y2840417D01*
Y2835085D01*
X1477519Y2833753D01*
X1474853D01*
X1473520Y2835085D01*
X1470854Y2833753D02*
Y2839084D01*
X1468188Y2841750D01*
X1465523Y2839084D01*
Y2833753D01*
Y2837751D01*
X1470854D01*
X1462857Y2833753D02*
Y2841750D01*
X1457525Y2833753D01*
Y2841750D01*
X1446862D02*
Y2833753D01*
X1441530D01*
X1438865Y2841750D02*
Y2836418D01*
X1436199Y2833753D01*
X1433533Y2836418D01*
Y2841750D01*
X1370520Y2843417D02*
X1371853Y2844750D01*
X1374519D01*
X1375852Y2843417D01*
Y2838086D01*
X1374519Y2836753D01*
X1371853D01*
X1370520Y2838086D01*
X1367854Y2836753D02*
Y2842084D01*
X1365188Y2844750D01*
X1362523Y2842084D01*
Y2836753D01*
Y2840751D01*
X1367854D01*
X1359857Y2836753D02*
Y2844750D01*
X1354525Y2836753D01*
Y2844750D01*
X1343862D02*
Y2836753D01*
X1338530D01*
X1335865Y2844750D02*
Y2839419D01*
X1333199Y2836753D01*
X1330533Y2839419D01*
Y2844750D01*
X1519535Y2731868D02*
X1518203Y2733201D01*
Y2735867D01*
X1519535Y2737200D01*
X1524867D01*
X1526200Y2735867D01*
Y2733201D01*
X1524867Y2731868D01*
X1526200Y2729203D02*
X1520868D01*
X1518203Y2726537D01*
X1520868Y2723871D01*
X1526200D01*
X1522201D01*
Y2729203D01*
X1526200Y2721205D02*
X1518203D01*
X1526200Y2715873D01*
X1518203D01*
Y2705210D02*
X1526200D01*
X1522201D01*
Y2699879D01*
X1518203D01*
X1526200D01*
X1518203Y2697213D02*
X1523534D01*
X1526200Y2694547D01*
X1523534Y2691881D01*
X1518203D01*
X1370868Y2582465D02*
X1372201Y2583797D01*
X1374867D01*
X1376200Y2582465D01*
Y2577133D01*
X1374867Y2575800D01*
X1372201D01*
X1370868Y2577133D01*
X1368203Y2575800D02*
Y2581132D01*
X1365537Y2583797D01*
X1362871Y2581132D01*
Y2575800D01*
Y2579799D01*
X1368203D01*
X1360205Y2575800D02*
Y2583797D01*
X1354874Y2575800D01*
Y2583797D01*
X1344210D02*
Y2575800D01*
X1338879D01*
X1336213Y2583797D02*
Y2578466D01*
X1333547Y2575800D01*
X1330881Y2578466D01*
Y2583797D01*
X1476868Y2583464D02*
X1478201Y2584797D01*
X1480867D01*
X1482200Y2583464D01*
Y2578133D01*
X1480867Y2576800D01*
X1478201D01*
X1476868Y2578133D01*
X1474203Y2576800D02*
Y2582132D01*
X1471537Y2584797D01*
X1468871Y2582132D01*
Y2576800D01*
Y2580799D01*
X1474203D01*
X1466205Y2576800D02*
Y2584797D01*
X1460874Y2576800D01*
Y2584797D01*
X1450210D02*
Y2576800D01*
X1444879D01*
X1442213Y2584797D02*
Y2579466D01*
X1439547Y2576800D01*
X1436881Y2579466D01*
Y2584797D01*
D34*
X1456000Y2778196D02*
Y2788193D01*
X1451002D01*
X1449335Y2786527D01*
Y2783195D01*
X1451002Y2781528D01*
X1456000D01*
X1441005Y2788193D02*
X1444337D01*
X1446003Y2786527D01*
Y2779862D01*
X1444337Y2778196D01*
X1441005D01*
X1439339Y2779862D01*
Y2786527D01*
X1441005Y2788193D01*
X1436006D02*
Y2778196D01*
X1432674Y2781528D01*
X1429342Y2778196D01*
Y2788193D01*
X1419345D02*
X1426010D01*
Y2778196D01*
X1419345D01*
X1426010Y2783195D02*
X1422677D01*
X1416013Y2778196D02*
Y2788193D01*
X1411015D01*
X1409348Y2786527D01*
Y2783195D01*
X1411015Y2781528D01*
X1416013D01*
X1412681D02*
X1409348Y2778196D01*
X1449335Y2767331D02*
X1451002Y2768997D01*
X1454334D01*
X1456000Y2767331D01*
Y2760666D01*
X1454334Y2759000D01*
X1451002D01*
X1449335Y2760666D01*
X1441005Y2768997D02*
X1444337D01*
X1446003Y2767331D01*
Y2760666D01*
X1444337Y2759000D01*
X1441005D01*
X1439339Y2760666D01*
Y2767331D01*
X1441005Y2768997D01*
X1436006Y2759000D02*
Y2768997D01*
X1429342Y2759000D01*
Y2768997D01*
X1426010Y2759000D02*
Y2768997D01*
X1419345Y2759000D01*
Y2768997D01*
X1409348D02*
X1416013D01*
Y2759000D01*
X1409348D01*
X1416013Y2763998D02*
X1412681D01*
X1399352Y2767331D02*
X1401018Y2768997D01*
X1404350D01*
X1406016Y2767331D01*
Y2760666D01*
X1404350Y2759000D01*
X1401018D01*
X1399352Y2760666D01*
X1396019Y2768997D02*
X1389355D01*
X1392687D01*
Y2759000D01*
X1381024Y2768997D02*
X1384356D01*
X1386023Y2767331D01*
Y2760666D01*
X1384356Y2759000D01*
X1381024D01*
X1379358Y2760666D01*
Y2767331D01*
X1381024Y2768997D01*
X1376026Y2759000D02*
Y2768997D01*
X1371027D01*
X1369361Y2767331D01*
Y2763998D01*
X1371027Y2762332D01*
X1376026D01*
X1372693D02*
X1369361Y2759000D01*
X1356032Y2768997D02*
Y2762332D01*
X1352700Y2759000D01*
X1349368Y2762332D01*
Y2768997D01*
X1346035Y2759000D02*
X1342703D01*
X1344369D01*
Y2768997D01*
X1346035Y2767331D01*
X1337705Y2759000D02*
Y2760666D01*
X1336039D01*
Y2759000D01*
X1337705D01*
X1329374D02*
X1326042D01*
X1327708D01*
Y2768997D01*
X1329374Y2767331D01*
M02*
