G04*
G04 #@! TF.GenerationSoftware,Altium Limited,Altium Designer,21.6.1 (37)*
G04*
G04 Layer_Color=65535*
%FSLAX44Y44*%
%MOMM*%
G71*
G04*
G04 #@! TF.SameCoordinates,1BEE1390-1912-4ABB-88D9-A5500B876282*
G04*
G04*
G04 #@! TF.FilePolarity,Positive*
G04*
G01*
G75*
%ADD10C,0.2000*%
%ADD11C,0.1270*%
%ADD12C,0.1700*%
%ADD13C,0.2540*%
D10*
X1372000Y2788250D02*
G03*
X1372000Y2788250I-1000J0D01*
G01*
X1475000Y2787250D02*
G03*
X1475000Y2787250I-1000J0D01*
G01*
X1440000Y2631750D02*
G03*
X1440000Y2631750I-1000J0D01*
G01*
X1334250Y2632000D02*
G03*
X1334250Y2632000I-1000J0D01*
G01*
X1439000Y2662000D02*
G03*
X1439000Y2662000I-1000J0D01*
G01*
D11*
X1394250Y2804750D02*
Y2818950D01*
X1376600Y2804750D02*
X1394250D01*
X1311750D02*
Y2819050D01*
Y2804750D02*
X1329400D01*
X1322500Y2845250D02*
X1383400D01*
X1497250Y2803750D02*
Y2817950D01*
X1479600Y2803750D02*
X1497250D01*
X1414750D02*
Y2818050D01*
Y2803750D02*
X1432400D01*
X1425500Y2844250D02*
X1486400D01*
X1415750Y2601050D02*
Y2615250D01*
X1433400D01*
X1498250Y2600950D02*
Y2615250D01*
X1480600D02*
X1498250D01*
X1426600Y2574750D02*
X1487500D01*
X1310000Y2601300D02*
Y2615500D01*
X1327650D01*
X1392500Y2601200D02*
Y2615500D01*
X1374850D02*
X1392500D01*
X1320850Y2575000D02*
X1381750D01*
X1447000Y2781000D02*
X1468000D01*
X1447000Y2758500D02*
Y2781000D01*
X1446500Y2643500D02*
X1467500D01*
X1446500D02*
Y2666000D01*
X1526500Y2643000D02*
X1536000D01*
X1535500Y2782000D02*
X1536000Y2781500D01*
X1526500Y2782000D02*
X1535500D01*
X1536000Y2643000D02*
Y2781500D01*
D12*
X1417915Y2701394D02*
Y2706059D01*
X1415583Y2703727D02*
X1420248D01*
X1417915Y2715389D02*
Y2720055D01*
D13*
X1281574Y2639618D02*
X1286652D01*
X1284113D01*
Y2624383D01*
X1281574D01*
X1286652D01*
X1294270D02*
Y2639618D01*
X1304426Y2624383D01*
Y2639618D01*
M02*
