G04*
G04 #@! TF.GenerationSoftware,Altium Limited,Altium Designer,24.4.1 (13)*
G04*
G04 Layer_Color=8388736*
%FSLAX44Y44*%
%MOMM*%
G71*
G04*
G04 #@! TF.SameCoordinates,60579931-1C11-4224-ADE3-228BDE75D65C*
G04*
G04*
G04 #@! TF.FilePolarity,Negative*
G04*
G01*
G75*
%ADD20R,0.9032X1.1032*%
%ADD21R,1.0032X1.0032*%
%ADD22R,2.9032X1.2032*%
%ADD23R,4.0032X2.0032*%
%ADD24R,1.2032X2.9032*%
%ADD25R,0.8032X1.9032*%
G04:AMPARAMS|DCode=26|XSize=2.6032mm|YSize=2.6032mm|CornerRadius=0.7016mm|HoleSize=0mm|Usage=FLASHONLY|Rotation=0.000|XOffset=0mm|YOffset=0mm|HoleType=Round|Shape=RoundedRectangle|*
%AMROUNDEDRECTD26*
21,1,2.6032,1.2000,0,0,0.0*
21,1,1.2000,2.6032,0,0,0.0*
1,1,1.4032,0.6000,-0.6000*
1,1,1.4032,-0.6000,-0.6000*
1,1,1.4032,-0.6000,0.6000*
1,1,1.4032,0.6000,0.6000*
%
%ADD26ROUNDEDRECTD26*%
%ADD27C,2.6032*%
%ADD28C,1.8032*%
D20*
X1399500Y2641000D02*
D03*
X1384500D02*
D03*
X1391500Y2654000D02*
D03*
X1376500D02*
D03*
X1380500Y2784000D02*
D03*
X1395500D02*
D03*
D21*
X1423500Y2784000D02*
D03*
X1408500D02*
D03*
X1431500Y2646000D02*
D03*
X1416500D02*
D03*
D22*
X1455000Y2674500D02*
D03*
Y2689500D02*
D03*
Y2704500D02*
D03*
Y2719500D02*
D03*
Y2734500D02*
D03*
Y2749500D02*
D03*
D23*
X1502000Y2652000D02*
D03*
Y2772000D02*
D03*
D24*
X1390250Y2834250D02*
D03*
X1315750D02*
D03*
X1493250Y2833250D02*
D03*
X1418750D02*
D03*
X1419750Y2585750D02*
D03*
X1494250D02*
D03*
X1314000Y2586000D02*
D03*
X1388500D02*
D03*
D25*
X1359250Y2802250D02*
D03*
X1371750D02*
D03*
X1346750D02*
D03*
X1334250D02*
D03*
X1462250Y2801250D02*
D03*
X1474750D02*
D03*
X1449750D02*
D03*
X1437250D02*
D03*
X1450750Y2617750D02*
D03*
X1438250D02*
D03*
X1463250D02*
D03*
X1475750D02*
D03*
X1345000Y2618000D02*
D03*
X1332500D02*
D03*
X1357500D02*
D03*
X1370000D02*
D03*
D26*
X1400000Y2735000D02*
D03*
D27*
Y2686000D02*
D03*
D28*
X1300178Y2766242D02*
D03*
X1299670Y2656260D02*
D03*
M02*
