G04*
G04 #@! TF.GenerationSoftware,Altium Limited,Altium Designer,21.6.1 (37)*
G04*
G04 Layer_Color=8421504*
%FSLAX44Y44*%
%MOMM*%
G71*
G04*
G04 #@! TF.SameCoordinates,B1B93876-0226-414C-94E0-45D9D66D3651*
G04*
G04*
G04 #@! TF.FilePolarity,Positive*
G04*
G01*
G75*
%ADD14R,1.0000X2.7000*%
%ADD15R,0.6000X1.7000*%
%ADD16R,3.8000X1.8000*%
%ADD17R,2.7000X1.0000*%
D14*
X1390250Y2834250D02*
D03*
X1315750D02*
D03*
X1493250Y2833250D02*
D03*
X1418750D02*
D03*
X1419750Y2585750D02*
D03*
X1494250D02*
D03*
X1314000Y2586000D02*
D03*
X1388500D02*
D03*
D15*
X1359250Y2802250D02*
D03*
X1371750D02*
D03*
X1346750D02*
D03*
X1334250D02*
D03*
X1462250Y2801250D02*
D03*
X1474750D02*
D03*
X1449750D02*
D03*
X1437250D02*
D03*
X1450750Y2617750D02*
D03*
X1438250D02*
D03*
X1463250D02*
D03*
X1475750D02*
D03*
X1345000Y2618000D02*
D03*
X1332500D02*
D03*
X1357500D02*
D03*
X1370000D02*
D03*
D16*
X1502000Y2772000D02*
D03*
Y2652000D02*
D03*
D17*
X1455000Y2749500D02*
D03*
Y2734500D02*
D03*
Y2719500D02*
D03*
Y2704500D02*
D03*
Y2689500D02*
D03*
Y2674500D02*
D03*
M02*
