G04*
G04 #@! TF.GenerationSoftware,Altium Limited,Altium Designer,21.6.1 (37)*
G04*
G04 Layer_Physical_Order=1*
G04 Layer_Color=255*
%FSLAX44Y44*%
%MOMM*%
G71*
G04*
G04 #@! TF.SameCoordinates,B1B93876-0226-414C-94E0-45D9D66D3651*
G04*
G04*
G04 #@! TF.FilePolarity,Positive*
G04*
G01*
G75*
%ADD14R,1.0000X2.7000*%
%ADD15R,0.6000X1.7000*%
%ADD16R,3.8000X1.8000*%
%ADD17R,2.7000X1.0000*%
%ADD25C,0.4000*%
%ADD26C,0.7000*%
%ADD27C,0.5000*%
%ADD28C,4.0000*%
%ADD29C,1.6000*%
%ADD30C,2.4000*%
G04:AMPARAMS|DCode=31|XSize=2.4mm|YSize=2.4mm|CornerRadius=0.6mm|HoleSize=0mm|Usage=FLASHONLY|Rotation=0.000|XOffset=0mm|YOffset=0mm|HoleType=Round|Shape=RoundedRectangle|*
%AMROUNDEDRECTD31*
21,1,2.4000,1.2000,0,0,0.0*
21,1,1.2000,2.4000,0,0,0.0*
1,1,1.2000,0.6000,-0.6000*
1,1,1.2000,-0.6000,-0.6000*
1,1,1.2000,-0.6000,0.6000*
1,1,1.2000,0.6000,0.6000*
%
%ADD31ROUNDEDRECTD31*%
%ADD32C,0.7000*%
G36*
X1531000Y2811000D02*
Y2607000D01*
X1499000Y2575000D01*
X1314000D01*
X1275000Y2614000D01*
Y2809000D01*
X1309746Y2843746D01*
X1497720Y2844280D01*
X1531000Y2811000D01*
D02*
G37*
%LPC*%
G36*
X1459907Y2819773D02*
X1459907Y2819773D01*
X1367500D01*
X1367500Y2819773D01*
X1366056Y2819485D01*
X1364832Y2818668D01*
X1364832Y2818668D01*
X1358615Y2812450D01*
X1354550D01*
Y2792050D01*
X1363950D01*
Y2807115D01*
X1365877Y2809042D01*
X1367050Y2808556D01*
Y2804576D01*
X1366852Y2804279D01*
X1366448Y2802250D01*
Y2797750D01*
X1366852Y2795721D01*
X1367050Y2795424D01*
Y2792050D01*
X1371738D01*
X1372250Y2791948D01*
X1374554D01*
X1375251Y2791251D01*
X1376971Y2790102D01*
X1379000Y2789698D01*
X1382000D01*
X1384029Y2790102D01*
X1385749Y2791251D01*
X1386898Y2792971D01*
X1387302Y2795000D01*
X1386898Y2797029D01*
X1385749Y2798749D01*
X1384029Y2799898D01*
X1382000Y2800302D01*
X1381196D01*
X1380499Y2800999D01*
X1378779Y2802148D01*
X1377002Y2802502D01*
X1376648Y2804279D01*
X1376450Y2804576D01*
Y2812227D01*
X1444102D01*
X1445050Y2811450D01*
X1445050Y2810958D01*
Y2797106D01*
X1425226Y2777282D01*
X1361774D01*
X1351032Y2788024D01*
Y2792050D01*
X1351450D01*
Y2812450D01*
X1342050D01*
Y2792050D01*
X1342468D01*
Y2786250D01*
X1342794Y2784611D01*
X1343722Y2783222D01*
X1356972Y2769972D01*
X1358361Y2769044D01*
X1360000Y2768718D01*
X1422718D01*
Y2722429D01*
X1423044Y2720790D01*
X1423972Y2719401D01*
X1426901Y2716472D01*
X1428290Y2715544D01*
X1429929Y2715218D01*
X1439800D01*
Y2712800D01*
X1457086D01*
X1457500Y2712718D01*
X1464278D01*
X1464444Y2712470D01*
X1463765Y2711200D01*
X1439800D01*
Y2697800D01*
X1470200D01*
Y2706024D01*
X1471373Y2706510D01*
X1474918Y2702966D01*
Y2685883D01*
X1473686Y2685575D01*
X1473130Y2686614D01*
X1470418Y2689919D01*
X1470200Y2690098D01*
Y2696200D01*
X1456066D01*
X1455000Y2696305D01*
X1420532D01*
X1415419Y2701418D01*
X1412114Y2704130D01*
X1408344Y2706145D01*
X1404254Y2707386D01*
X1400000Y2707805D01*
X1395746Y2707386D01*
X1391656Y2706145D01*
X1387886Y2704130D01*
X1384581Y2701418D01*
X1381870Y2698114D01*
X1379855Y2694344D01*
X1378614Y2690254D01*
X1378195Y2686000D01*
X1378614Y2681746D01*
X1379855Y2677656D01*
X1381870Y2673886D01*
X1384581Y2670581D01*
X1396082Y2659081D01*
X1399386Y2656370D01*
X1403156Y2654355D01*
X1407246Y2653114D01*
X1411500Y2652695D01*
X1455000D01*
X1459254Y2653114D01*
X1462223Y2654015D01*
X1462896Y2652892D01*
X1460222Y2650218D01*
X1459294Y2648828D01*
X1458968Y2647190D01*
Y2627950D01*
X1458550D01*
Y2613606D01*
X1456623Y2611679D01*
X1455450Y2612165D01*
Y2627950D01*
X1454648D01*
Y2629183D01*
X1454749Y2629251D01*
X1455898Y2630971D01*
X1456302Y2633000D01*
X1455898Y2635029D01*
X1454749Y2636749D01*
X1453029Y2637898D01*
X1451000Y2638302D01*
X1448971Y2637898D01*
X1447251Y2636749D01*
X1446102Y2635029D01*
X1446067Y2634853D01*
X1444851Y2634484D01*
X1440668Y2638668D01*
X1439444Y2639485D01*
X1438000Y2639773D01*
X1438000Y2639773D01*
X1347343D01*
X1345900Y2639485D01*
X1344676Y2638668D01*
X1344675Y2638668D01*
X1342332Y2636324D01*
X1341515Y2635100D01*
X1341228Y2633657D01*
X1341228Y2633657D01*
Y2628200D01*
X1340300D01*
Y2607800D01*
X1349700D01*
Y2628200D01*
X1348772D01*
Y2632094D01*
X1348906Y2632227D01*
X1436437D01*
X1439542Y2629123D01*
X1439056Y2627950D01*
X1438262D01*
X1437750Y2628052D01*
X1434257D01*
X1433000Y2628302D01*
X1429000D01*
X1426971Y2627898D01*
X1425251Y2626749D01*
X1424102Y2625029D01*
X1423698Y2623000D01*
X1424102Y2620971D01*
X1425251Y2619251D01*
X1426971Y2618102D01*
X1429000Y2617698D01*
X1431993D01*
X1432998Y2617498D01*
X1433352Y2615721D01*
X1433550Y2615424D01*
Y2609332D01*
X1366724D01*
X1362200Y2613856D01*
Y2628200D01*
X1352800D01*
Y2607800D01*
X1356144D01*
X1361922Y2602022D01*
X1363311Y2601094D01*
X1364950Y2600768D01*
X1456050D01*
X1457689Y2601094D01*
X1459078Y2602022D01*
X1464606Y2607550D01*
X1467950D01*
Y2627950D01*
X1467532D01*
Y2645416D01*
X1482228Y2660112D01*
X1483156Y2661501D01*
X1483482Y2663140D01*
Y2704740D01*
X1483156Y2706378D01*
X1482228Y2707768D01*
X1470200Y2719796D01*
Y2726200D01*
X1439800D01*
Y2723782D01*
X1431703D01*
X1431282Y2724203D01*
Y2771226D01*
X1451106Y2791050D01*
X1454450D01*
Y2810958D01*
X1454450Y2811450D01*
X1455398Y2812227D01*
X1456602D01*
X1457550Y2811450D01*
Y2791050D01*
X1458353D01*
Y2786817D01*
X1458251Y2786749D01*
X1457102Y2785029D01*
X1456698Y2783000D01*
X1457102Y2780971D01*
X1458251Y2779251D01*
X1459971Y2778102D01*
X1462000Y2777698D01*
X1464029Y2778102D01*
X1465749Y2779251D01*
X1466898Y2780971D01*
X1467302Y2783000D01*
X1466898Y2785029D01*
X1465898Y2786527D01*
Y2791050D01*
X1466950D01*
Y2811450D01*
X1466022D01*
Y2813657D01*
X1465735Y2815100D01*
X1464918Y2816324D01*
X1464917Y2816324D01*
X1462574Y2818668D01*
X1461351Y2819485D01*
X1459907Y2819773D01*
D02*
G37*
G36*
X1479450Y2811450D02*
X1470050D01*
Y2803576D01*
X1469852Y2803279D01*
X1469448Y2801250D01*
Y2796750D01*
X1469852Y2794721D01*
X1470050Y2794424D01*
Y2791050D01*
X1474738D01*
X1475250Y2790948D01*
X1484743D01*
X1486000Y2790698D01*
X1488029Y2791102D01*
X1489749Y2792251D01*
X1490898Y2793971D01*
X1491302Y2796000D01*
X1490898Y2798029D01*
X1489749Y2799749D01*
X1489499Y2799999D01*
X1487779Y2801148D01*
X1485750Y2801552D01*
X1479992D01*
X1479648Y2803279D01*
X1479450Y2803576D01*
Y2811450D01*
D02*
G37*
G36*
X1300178Y2776026D02*
X1297646Y2775692D01*
X1295286Y2774715D01*
X1293260Y2773160D01*
X1291705Y2771134D01*
X1290728Y2768774D01*
X1290394Y2766242D01*
X1290728Y2763710D01*
X1291705Y2761350D01*
X1293260Y2759324D01*
X1295286Y2757769D01*
X1297646Y2756792D01*
X1300178Y2756458D01*
X1302710Y2756792D01*
X1305070Y2757769D01*
X1307096Y2759324D01*
X1308651Y2761350D01*
X1309628Y2763710D01*
X1309962Y2766242D01*
X1309628Y2768774D01*
X1308651Y2771134D01*
X1307096Y2773160D01*
X1305070Y2774715D01*
X1302710Y2775692D01*
X1300178Y2776026D01*
D02*
G37*
G36*
X1299670Y2666044D02*
X1297138Y2665710D01*
X1294778Y2664733D01*
X1292752Y2663178D01*
X1291197Y2661152D01*
X1290220Y2658792D01*
X1289886Y2656260D01*
X1290220Y2653728D01*
X1291197Y2651368D01*
X1292752Y2649342D01*
X1294778Y2647787D01*
X1297138Y2646810D01*
X1299670Y2646476D01*
X1302202Y2646810D01*
X1304562Y2647787D01*
X1306588Y2649342D01*
X1308143Y2651368D01*
X1309120Y2653728D01*
X1309454Y2656260D01*
X1309120Y2658792D01*
X1308143Y2661152D01*
X1306588Y2663178D01*
X1304562Y2664733D01*
X1302202Y2665710D01*
X1299670Y2666044D01*
D02*
G37*
G36*
X1337200Y2628200D02*
X1327800D01*
Y2627302D01*
X1322000D01*
X1319971Y2626898D01*
X1318251Y2625749D01*
X1317102Y2624029D01*
X1316698Y2622000D01*
X1317102Y2619971D01*
X1318251Y2618251D01*
X1319971Y2617102D01*
X1322000Y2616698D01*
X1327457D01*
X1327602Y2615971D01*
X1327800Y2615674D01*
Y2607800D01*
X1337200D01*
Y2615674D01*
X1337398Y2615971D01*
X1337802Y2618000D01*
Y2621500D01*
X1337398Y2623529D01*
X1337200Y2623826D01*
Y2628200D01*
D02*
G37*
%LPD*%
D14*
X1390250Y2834250D02*
D03*
X1315750D02*
D03*
X1493250Y2833250D02*
D03*
X1418750D02*
D03*
X1419750Y2585750D02*
D03*
X1494250D02*
D03*
X1314000Y2586000D02*
D03*
X1388500D02*
D03*
D15*
X1359250Y2802250D02*
D03*
X1371750D02*
D03*
X1346750D02*
D03*
X1334250D02*
D03*
X1462250Y2801250D02*
D03*
X1474750D02*
D03*
X1449750D02*
D03*
X1437250D02*
D03*
X1450750Y2617750D02*
D03*
X1438250D02*
D03*
X1463250D02*
D03*
X1475750D02*
D03*
X1345000Y2618000D02*
D03*
X1332500D02*
D03*
X1357500D02*
D03*
X1370000D02*
D03*
D16*
X1502000Y2772000D02*
D03*
Y2652000D02*
D03*
D17*
X1455000Y2749500D02*
D03*
Y2734500D02*
D03*
Y2719500D02*
D03*
Y2704500D02*
D03*
Y2689500D02*
D03*
Y2674500D02*
D03*
D25*
X1462125Y2783125D02*
Y2801125D01*
X1462000Y2783000D02*
X1462125Y2783125D01*
Y2801125D02*
X1462250Y2801250D01*
Y2813657D01*
X1345000Y2618000D02*
Y2633657D01*
X1438000Y2636000D02*
X1450750Y2623250D01*
X1345000Y2633657D02*
X1347343Y2636000D01*
X1438000D01*
X1450875Y2623250D02*
Y2632875D01*
Y2617875D02*
Y2623250D01*
Y2632875D02*
X1451000Y2633000D01*
X1450750Y2617750D02*
X1450875Y2617875D01*
X1367500Y2816000D02*
X1459907D01*
X1462250Y2813657D01*
X1359250Y2807750D02*
X1367500Y2816000D01*
X1359250Y2802250D02*
Y2807750D01*
D26*
X1433000Y2623000D02*
X1433250Y2622750D01*
X1429000Y2623000D02*
X1433000D01*
X1438250Y2617750D02*
Y2622250D01*
X1437750Y2622750D02*
X1438250Y2622250D01*
X1433250Y2622750D02*
X1437750D01*
X1332000Y2622000D02*
X1332500Y2621500D01*
X1322000Y2622000D02*
X1332000D01*
X1332500Y2618000D02*
Y2621500D01*
X1372250Y2797250D02*
X1376750D01*
X1379000Y2795000D01*
X1371750Y2797750D02*
Y2802250D01*
Y2797750D02*
X1372250Y2797250D01*
X1379000Y2795000D02*
X1382000D01*
X1485750Y2796250D02*
X1486000Y2796000D01*
X1474750Y2796750D02*
Y2801250D01*
Y2796750D02*
X1475250Y2796250D01*
X1485750D01*
D27*
X1455000Y2719500D02*
X1457500Y2717000D01*
X1466940D01*
X1479200Y2704740D01*
X1463250Y2617750D02*
Y2647190D01*
X1479200Y2663140D01*
Y2704740D01*
X1463250Y2612250D02*
Y2617750D01*
X1456050Y2605050D02*
X1463250Y2612250D01*
X1364950Y2605050D02*
X1456050D01*
X1357500Y2612500D02*
X1364950Y2605050D01*
X1357500Y2612500D02*
Y2618000D01*
X1346750Y2786250D02*
X1360000Y2773000D01*
X1346750Y2786250D02*
Y2802250D01*
X1360000Y2773000D02*
X1427000D01*
X1449750Y2795750D02*
Y2801250D01*
X1427000Y2773000D02*
X1449750Y2795750D01*
X1427000Y2722429D02*
Y2773000D01*
X1429929Y2719500D02*
X1455000D01*
X1427000Y2722429D02*
X1429929Y2719500D01*
D28*
X1411500Y2674500D02*
X1455000D01*
X1400000Y2686000D02*
X1411500Y2674500D01*
D29*
X1299670Y2656260D02*
D03*
X1300178Y2766242D02*
D03*
D30*
X1400000Y2686000D02*
D03*
D31*
Y2735000D02*
D03*
D32*
X1510000Y2800000D02*
D03*
X1522500Y2775000D02*
D03*
X1510000Y2750000D02*
D03*
X1522500Y2725000D02*
D03*
X1510000Y2700000D02*
D03*
X1522500Y2675000D02*
D03*
X1510000Y2650000D02*
D03*
X1522500Y2625000D02*
D03*
X1510000Y2600000D02*
D03*
X1497500Y2825000D02*
D03*
Y2775000D02*
D03*
X1485000Y2750000D02*
D03*
X1497500Y2725000D02*
D03*
Y2675000D02*
D03*
X1485000Y2650000D02*
D03*
X1497500Y2625000D02*
D03*
X1485000Y2600000D02*
D03*
X1472500Y2825000D02*
D03*
X1460000Y2750000D02*
D03*
X1472500Y2625000D02*
D03*
X1447500Y2825000D02*
D03*
Y2775000D02*
D03*
X1435000Y2750000D02*
D03*
Y2700000D02*
D03*
X1422500Y2825000D02*
D03*
X1410000Y2750000D02*
D03*
X1397500Y2825000D02*
D03*
X1385000Y2750000D02*
D03*
X1397500Y2725000D02*
D03*
X1385000Y2650000D02*
D03*
X1372500Y2825000D02*
D03*
X1360000Y2750000D02*
D03*
X1372500Y2725000D02*
D03*
X1360000Y2700000D02*
D03*
X1372500Y2675000D02*
D03*
X1360000Y2650000D02*
D03*
X1347500Y2825000D02*
D03*
X1335000Y2800000D02*
D03*
Y2750000D02*
D03*
X1347500Y2725000D02*
D03*
X1335000Y2700000D02*
D03*
X1347500Y2675000D02*
D03*
X1335000Y2650000D02*
D03*
Y2600000D02*
D03*
X1322500Y2825000D02*
D03*
X1310000Y2800000D02*
D03*
X1322500Y2775000D02*
D03*
X1310000Y2750000D02*
D03*
Y2700000D02*
D03*
Y2600000D02*
D03*
X1462000Y2783000D02*
D03*
X1429000Y2623000D02*
D03*
X1322000Y2622000D02*
D03*
X1486000Y2796000D02*
D03*
X1382000Y2795000D02*
D03*
X1451000Y2633000D02*
D03*
X1463000Y2705000D02*
D03*
M02*
