G04*
G04 #@! TF.GenerationSoftware,Altium Limited,Altium Designer,24.4.1 (13)*
G04*
G04 Layer_Color=32896*
%FSLAX44Y44*%
%MOMM*%
G71*
G04*
G04 #@! TF.SameCoordinates,60579931-1C11-4224-ADE3-228BDE75D65C*
G04*
G04*
G04 #@! TF.FilePolarity,Positive*
G04*
G01*
G75*
%ADD37C,0.3000*%
G36*
X1451338Y2784335D02*
X1445857D01*
X1442265Y2797816D01*
X1442191Y2798186D01*
X1442117Y2798593D01*
X1442043Y2798963D01*
X1442006Y2799334D01*
X1441969Y2799667D01*
X1441931Y2799963D01*
X1441895Y2800111D01*
Y2800186D01*
X1441820D01*
X1441783Y2799704D01*
X1441746Y2799260D01*
X1441709Y2798852D01*
X1441635Y2798519D01*
X1441598Y2798223D01*
X1441524Y2798000D01*
X1441487Y2797852D01*
Y2797816D01*
X1438006Y2784335D01*
X1432747D01*
X1427192Y2805370D01*
X1431970D01*
X1434858Y2791335D01*
X1435006Y2790483D01*
X1435080Y2790075D01*
X1435117Y2789705D01*
X1435155Y2789409D01*
X1435191Y2789187D01*
Y2789001D01*
Y2788965D01*
X1435228D01*
X1435303Y2789483D01*
X1435340Y2789927D01*
X1435414Y2790335D01*
X1435451Y2790668D01*
X1435488Y2790890D01*
X1435525Y2791075D01*
X1435562Y2791187D01*
Y2791223D01*
X1439043Y2805370D01*
X1444117D01*
X1447931Y2791409D01*
X1448042Y2790927D01*
X1448153Y2790446D01*
X1448227Y2790038D01*
X1448264Y2789668D01*
X1448301Y2789372D01*
X1448338Y2789113D01*
Y2788965D01*
Y2788927D01*
X1448449D01*
X1448486Y2789483D01*
X1448523Y2789927D01*
X1448560Y2790372D01*
X1448598Y2790705D01*
X1448634Y2790964D01*
X1448672Y2791187D01*
X1448709Y2791298D01*
Y2791335D01*
X1451671Y2805370D01*
X1456856D01*
X1451338Y2784335D01*
D02*
G37*
G36*
X1496000D02*
X1491260D01*
Y2791557D01*
X1489001D01*
X1488297Y2791594D01*
X1487630Y2791631D01*
X1487038Y2791742D01*
X1486445Y2791853D01*
X1485890Y2792001D01*
X1485408Y2792186D01*
X1484927Y2792372D01*
X1484520Y2792557D01*
X1484149Y2792705D01*
X1483853Y2792890D01*
X1483557Y2793075D01*
X1483335Y2793223D01*
X1483150Y2793334D01*
X1483038Y2793445D01*
X1482964Y2793482D01*
X1482927Y2793520D01*
X1482520Y2793890D01*
X1482187Y2794297D01*
X1481853Y2794742D01*
X1481594Y2795149D01*
X1481372Y2795593D01*
X1481187Y2796001D01*
X1480927Y2796815D01*
X1480742Y2797556D01*
X1480705Y2797852D01*
X1480668Y2798149D01*
X1480631Y2798371D01*
Y2798519D01*
Y2798630D01*
Y2798667D01*
X1480668Y2799260D01*
X1480705Y2799852D01*
X1480816Y2800371D01*
X1480965Y2800889D01*
X1481372Y2801778D01*
X1481890Y2802556D01*
X1482483Y2803185D01*
X1483150Y2803741D01*
X1483853Y2804185D01*
X1484594Y2804518D01*
X1485372Y2804815D01*
X1486075Y2805000D01*
X1486742Y2805185D01*
X1487334Y2805259D01*
X1487853Y2805333D01*
X1488260Y2805370D01*
X1496000D01*
Y2784335D01*
D02*
G37*
G36*
X1424489D02*
X1411861Y2784335D01*
Y2788150D01*
X1419749D01*
Y2792964D01*
X1412861D01*
Y2796815D01*
X1419749D01*
Y2801519D01*
X1412379D01*
Y2805370D01*
X1424489Y2805370D01*
Y2784335D01*
D02*
G37*
G36*
X1408491Y2784335D02*
X1403750D01*
Y2792372D01*
X1402491D01*
X1402158Y2792335D01*
X1401899Y2792297D01*
X1401750Y2792224D01*
X1401676Y2792186D01*
X1401417Y2792038D01*
X1401195Y2791853D01*
X1401047Y2791742D01*
X1400973Y2791668D01*
X1400714Y2791409D01*
X1400491Y2791112D01*
X1400343Y2790890D01*
X1400269Y2790853D01*
Y2790816D01*
X1400010Y2790446D01*
X1399788Y2790113D01*
X1399714Y2789964D01*
X1399640Y2789853D01*
X1399566Y2789779D01*
Y2789742D01*
X1396307Y2784335D01*
X1390826D01*
X1394825Y2790557D01*
X1395047Y2790927D01*
X1395270Y2791223D01*
X1395418Y2791446D01*
X1395492Y2791483D01*
Y2791520D01*
X1395788Y2791890D01*
X1396047Y2792186D01*
X1396233Y2792408D01*
X1396270Y2792446D01*
X1396307Y2792483D01*
X1396603Y2792779D01*
X1396899Y2793038D01*
X1397084Y2793186D01*
X1397121Y2793260D01*
X1397158D01*
X1397455Y2793482D01*
X1397751Y2793631D01*
X1397973Y2793705D01*
X1398010Y2793742D01*
X1398047D01*
Y2793779D01*
X1397307Y2794038D01*
X1396973Y2794186D01*
X1396677Y2794334D01*
X1396455Y2794445D01*
X1396270Y2794557D01*
X1396158Y2794594D01*
X1396122Y2794630D01*
X1395529Y2795075D01*
X1395270Y2795297D01*
X1395047Y2795482D01*
X1394862Y2795667D01*
X1394751Y2795816D01*
X1394677Y2795890D01*
X1394640Y2795927D01*
X1394233Y2796519D01*
X1393936Y2797038D01*
X1393825Y2797260D01*
X1393751Y2797445D01*
X1393677Y2797556D01*
Y2797593D01*
X1393492Y2798334D01*
X1393418Y2798667D01*
X1393381Y2798963D01*
X1393344Y2799223D01*
Y2799445D01*
Y2799593D01*
Y2799630D01*
X1393381Y2800149D01*
X1393418Y2800630D01*
X1393529Y2801111D01*
X1393677Y2801519D01*
X1394048Y2802296D01*
X1394529Y2802963D01*
X1395122Y2803518D01*
X1395751Y2803963D01*
X1396455Y2804333D01*
X1397158Y2804666D01*
X1397862Y2804889D01*
X1398566Y2805074D01*
X1399195Y2805185D01*
X1399788Y2805296D01*
X1400269Y2805333D01*
X1400639Y2805370D01*
X1408491D01*
Y2784335D01*
D02*
G37*
G36*
X1469188Y2805703D02*
X1470003Y2805592D01*
X1470780Y2805444D01*
X1471521Y2805259D01*
X1472188Y2805037D01*
X1472817Y2804741D01*
X1473410Y2804482D01*
X1473928Y2804185D01*
X1474373Y2803889D01*
X1474780Y2803629D01*
X1475150Y2803370D01*
X1475447Y2803111D01*
X1475669Y2802926D01*
X1475817Y2802778D01*
X1475928Y2802667D01*
X1475965Y2802630D01*
X1476483Y2802037D01*
X1476928Y2801407D01*
X1477298Y2800741D01*
X1477632Y2800074D01*
X1477928Y2799408D01*
X1478150Y2798741D01*
X1478335Y2798075D01*
X1478483Y2797445D01*
X1478594Y2796852D01*
X1478705Y2796297D01*
X1478780Y2795816D01*
X1478817Y2795371D01*
Y2795038D01*
X1478854Y2794779D01*
Y2794631D01*
Y2794557D01*
X1478817Y2793705D01*
X1478743Y2792890D01*
X1478594Y2792112D01*
X1478409Y2791371D01*
X1478187Y2790705D01*
X1477965Y2790075D01*
X1477706Y2789520D01*
X1477409Y2788965D01*
X1477150Y2788520D01*
X1476891Y2788113D01*
X1476669Y2787742D01*
X1476447Y2787446D01*
X1476261Y2787224D01*
X1476113Y2787076D01*
X1476039Y2786965D01*
X1476002Y2786927D01*
X1475447Y2786409D01*
X1474854Y2785965D01*
X1474261Y2785557D01*
X1473632Y2785224D01*
X1473039Y2784965D01*
X1472410Y2784706D01*
X1471817Y2784521D01*
X1471262Y2784372D01*
X1470706Y2784261D01*
X1470225Y2784150D01*
X1469780Y2784076D01*
X1469373Y2784039D01*
X1469077D01*
X1468818Y2784002D01*
X1468633D01*
X1467781Y2784039D01*
X1466966Y2784150D01*
X1466225Y2784298D01*
X1465522Y2784484D01*
X1464818Y2784706D01*
X1464225Y2784965D01*
X1463633Y2785224D01*
X1463152Y2785520D01*
X1462670Y2785780D01*
X1462263Y2786039D01*
X1461929Y2786298D01*
X1461633Y2786520D01*
X1461411Y2786743D01*
X1461263Y2786891D01*
X1461152Y2786965D01*
X1461115Y2787002D01*
X1460596Y2787594D01*
X1460152Y2788224D01*
X1459781Y2788853D01*
X1459448Y2789520D01*
X1459152Y2790186D01*
X1458930Y2790853D01*
X1458745Y2791520D01*
X1458596Y2792149D01*
X1458485Y2792742D01*
X1458374Y2793260D01*
X1458300Y2793742D01*
X1458263Y2794186D01*
X1458226Y2794519D01*
Y2794779D01*
Y2794964D01*
Y2795001D01*
X1458263Y2795890D01*
X1458337Y2796704D01*
X1458485Y2797519D01*
X1458671Y2798260D01*
X1458856Y2798926D01*
X1459115Y2799593D01*
X1459337Y2800149D01*
X1459596Y2800704D01*
X1459856Y2801185D01*
X1460115Y2801593D01*
X1460374Y2801963D01*
X1460559Y2802260D01*
X1460744Y2802482D01*
X1460892Y2802630D01*
X1460967Y2802741D01*
X1461004Y2802778D01*
X1461559Y2803296D01*
X1462115Y2803741D01*
X1462707Y2804148D01*
X1463300Y2804482D01*
X1463929Y2804778D01*
X1464522Y2805037D01*
X1465114Y2805222D01*
X1465707Y2805370D01*
X1466225Y2805481D01*
X1466707Y2805592D01*
X1467151Y2805667D01*
X1467558Y2805703D01*
X1467855Y2805740D01*
X1468299D01*
X1469188Y2805703D01*
D02*
G37*
G36*
X1453078Y2758390D02*
X1448634D01*
Y2769944D01*
Y2770759D01*
Y2771463D01*
X1448672Y2772018D01*
Y2772499D01*
X1448709Y2772870D01*
Y2773129D01*
X1448746Y2773314D01*
Y2773351D01*
X1448672D01*
X1448523Y2773092D01*
X1448375Y2772833D01*
X1448042Y2772277D01*
X1447894Y2772018D01*
X1447746Y2771796D01*
X1447672Y2771648D01*
X1447635Y2771611D01*
X1438932Y2758390D01*
X1434155D01*
Y2779425D01*
X1438636D01*
Y2767796D01*
Y2767056D01*
X1438598Y2766426D01*
Y2765908D01*
X1438562Y2765537D01*
Y2765241D01*
X1438524Y2765056D01*
Y2764945D01*
Y2764908D01*
X1438562D01*
X1438932Y2765537D01*
X1439117Y2765833D01*
X1439265Y2766093D01*
X1439413Y2766315D01*
X1439524Y2766463D01*
X1439598Y2766574D01*
X1439635Y2766611D01*
X1447968Y2779425D01*
X1453078D01*
Y2758390D01*
D02*
G37*
G36*
X1429303D02*
X1424859D01*
Y2769944D01*
Y2770759D01*
Y2771463D01*
X1424896Y2772018D01*
Y2772499D01*
X1424933Y2772870D01*
Y2773129D01*
X1424970Y2773314D01*
Y2773351D01*
X1424896D01*
X1424748Y2773092D01*
X1424600Y2772833D01*
X1424267Y2772277D01*
X1424119Y2772018D01*
X1423970Y2771796D01*
X1423896Y2771648D01*
X1423859Y2771611D01*
X1415157Y2758390D01*
X1410379D01*
Y2779425D01*
X1414860D01*
Y2767796D01*
Y2767056D01*
X1414823Y2766426D01*
Y2765908D01*
X1414786Y2765537D01*
Y2765241D01*
X1414749Y2765056D01*
Y2764945D01*
Y2764908D01*
X1414786D01*
X1415157Y2765537D01*
X1415342Y2765833D01*
X1415490Y2766093D01*
X1415638Y2766315D01*
X1415749Y2766463D01*
X1415823Y2766574D01*
X1415860Y2766611D01*
X1424193Y2779425D01*
X1429303D01*
Y2758390D01*
D02*
G37*
G36*
X1485705Y2779758D02*
X1486557Y2779647D01*
X1487371Y2779499D01*
X1488149Y2779314D01*
X1488890Y2779054D01*
X1489556Y2778795D01*
X1490149Y2778499D01*
X1490704Y2778240D01*
X1491186Y2777943D01*
X1491630Y2777647D01*
X1492000Y2777388D01*
X1492334Y2777129D01*
X1492556Y2776943D01*
X1492741Y2776795D01*
X1492852Y2776684D01*
X1492889Y2776647D01*
X1493445Y2776055D01*
X1493926Y2775388D01*
X1494333Y2774721D01*
X1494704Y2774018D01*
X1495000Y2773351D01*
X1495222Y2772648D01*
X1495444Y2771981D01*
X1495593Y2771352D01*
X1495741Y2770759D01*
X1495852Y2770204D01*
X1495889Y2769685D01*
X1495963Y2769278D01*
Y2768907D01*
X1496000Y2768648D01*
Y2768500D01*
Y2768426D01*
X1495963Y2767574D01*
X1495889Y2766759D01*
X1495741Y2765982D01*
X1495556Y2765241D01*
X1495370Y2764574D01*
X1495111Y2763945D01*
X1494852Y2763389D01*
X1494593Y2762871D01*
X1494333Y2762426D01*
X1494111Y2762019D01*
X1493852Y2761686D01*
X1493667Y2761389D01*
X1493482Y2761167D01*
X1493334Y2761019D01*
X1493259Y2760908D01*
X1493223Y2760871D01*
X1492667Y2760390D01*
X1492112Y2759945D01*
X1491482Y2759575D01*
X1490852Y2759242D01*
X1490223Y2758983D01*
X1489593Y2758760D01*
X1488964Y2758575D01*
X1488371Y2758427D01*
X1487816Y2758279D01*
X1487260Y2758205D01*
X1486816Y2758130D01*
X1486408Y2758094D01*
X1486075D01*
X1485816Y2758057D01*
X1485594D01*
X1484261Y2758094D01*
X1483668Y2758168D01*
X1483075Y2758242D01*
X1482557Y2758316D01*
X1482076Y2758390D01*
X1481631Y2758501D01*
X1481187Y2758612D01*
X1480853Y2758686D01*
X1480520Y2758797D01*
X1480224Y2758871D01*
X1480002Y2758983D01*
X1479816Y2759019D01*
X1479705Y2759094D01*
X1479631Y2759131D01*
X1479594D01*
Y2763463D01*
X1480483Y2763019D01*
X1481372Y2762686D01*
X1482224Y2762426D01*
X1483001Y2762278D01*
X1483668Y2762167D01*
X1483964Y2762130D01*
X1484186D01*
X1484409Y2762093D01*
X1484668D01*
X1485186Y2762130D01*
X1485705Y2762167D01*
X1486631Y2762390D01*
X1487408Y2762686D01*
X1488075Y2763019D01*
X1488593Y2763352D01*
X1488816Y2763500D01*
X1489001Y2763611D01*
X1489112Y2763760D01*
X1489223Y2763834D01*
X1489260Y2763871D01*
X1489297Y2763908D01*
X1489593Y2764278D01*
X1489852Y2764648D01*
X1490297Y2765426D01*
X1490593Y2766241D01*
X1490778Y2767019D01*
X1490927Y2767722D01*
X1490963Y2768018D01*
Y2768278D01*
X1491001Y2768500D01*
Y2768648D01*
Y2768759D01*
Y2768796D01*
X1490963Y2769389D01*
X1490927Y2769944D01*
X1490704Y2770944D01*
X1490408Y2771796D01*
X1490260Y2772166D01*
X1490075Y2772499D01*
X1489927Y2772796D01*
X1489741Y2773092D01*
X1489593Y2773314D01*
X1489482Y2773499D01*
X1489334Y2773647D01*
X1489260Y2773759D01*
X1489223Y2773796D01*
X1489186Y2773833D01*
X1488816Y2774166D01*
X1488445Y2774462D01*
X1488075Y2774684D01*
X1487668Y2774907D01*
X1486890Y2775240D01*
X1486112Y2775462D01*
X1485446Y2775573D01*
X1485149Y2775647D01*
X1484890D01*
X1484705Y2775685D01*
X1484409D01*
X1483409Y2775647D01*
X1482520Y2775499D01*
X1481705Y2775277D01*
X1481002Y2775055D01*
X1480409Y2774832D01*
X1480150Y2774721D01*
X1479965Y2774610D01*
X1479816Y2774536D01*
X1479705Y2774462D01*
X1479631Y2774425D01*
X1479594D01*
Y2779017D01*
X1480409Y2779277D01*
X1481298Y2779462D01*
X1482150Y2779610D01*
X1482964Y2779684D01*
X1483705Y2779758D01*
X1484001D01*
X1484261Y2779795D01*
X1484779D01*
X1485705Y2779758D01*
D02*
G37*
G36*
X1380567Y2779758D02*
X1381419Y2779647D01*
X1382234Y2779499D01*
X1383012Y2779314D01*
X1383752Y2779054D01*
X1384419Y2778795D01*
X1385011Y2778499D01*
X1385567Y2778240D01*
X1386048Y2777943D01*
X1386493Y2777647D01*
X1386863Y2777388D01*
X1387197Y2777129D01*
X1387419Y2776943D01*
X1387604Y2776795D01*
X1387715Y2776684D01*
X1387752Y2776647D01*
X1388307Y2776055D01*
X1388789Y2775388D01*
X1389196Y2774721D01*
X1389567Y2774018D01*
X1389863Y2773351D01*
X1390085Y2772648D01*
X1390307Y2771981D01*
X1390455Y2771352D01*
X1390603Y2770759D01*
X1390715Y2770204D01*
X1390752Y2769685D01*
X1390826Y2769278D01*
Y2768907D01*
X1390863Y2768648D01*
Y2768500D01*
Y2768426D01*
X1390826Y2767574D01*
X1390752Y2766759D01*
X1390603Y2765982D01*
X1390418Y2765241D01*
X1390233Y2764574D01*
X1389974Y2763945D01*
X1389715Y2763389D01*
X1389456Y2762871D01*
X1389196Y2762426D01*
X1388974Y2762019D01*
X1388715Y2761686D01*
X1388530Y2761389D01*
X1388345Y2761167D01*
X1388196Y2761019D01*
X1388122Y2760908D01*
X1388085Y2760871D01*
X1387530Y2760390D01*
X1386974Y2759945D01*
X1386345Y2759575D01*
X1385715Y2759242D01*
X1385086Y2758983D01*
X1384456Y2758760D01*
X1383826Y2758575D01*
X1383234Y2758427D01*
X1382678Y2758279D01*
X1382123Y2758205D01*
X1381678Y2758130D01*
X1381271Y2758094D01*
X1380938D01*
X1380679Y2758057D01*
X1380456D01*
X1379123Y2758094D01*
X1378531Y2758168D01*
X1377938Y2758242D01*
X1377420Y2758316D01*
X1376938Y2758390D01*
X1376494Y2758501D01*
X1376049Y2758612D01*
X1375716Y2758686D01*
X1375383Y2758797D01*
X1375087Y2758871D01*
X1374864Y2758983D01*
X1374679Y2759019D01*
X1374568Y2759094D01*
X1374494Y2759131D01*
X1374457D01*
Y2763463D01*
X1375346Y2763019D01*
X1376235Y2762686D01*
X1377086Y2762426D01*
X1377864Y2762278D01*
X1378531Y2762167D01*
X1378827Y2762130D01*
X1379049D01*
X1379271Y2762093D01*
X1379531D01*
X1380049Y2762130D01*
X1380567Y2762167D01*
X1381493Y2762390D01*
X1382271Y2762686D01*
X1382938Y2763019D01*
X1383456Y2763352D01*
X1383678Y2763500D01*
X1383864Y2763611D01*
X1383975Y2763759D01*
X1384086Y2763834D01*
X1384123Y2763871D01*
X1384160Y2763908D01*
X1384456Y2764278D01*
X1384715Y2764648D01*
X1385160Y2765426D01*
X1385456Y2766241D01*
X1385641Y2767019D01*
X1385789Y2767722D01*
X1385826Y2768018D01*
Y2768278D01*
X1385863Y2768500D01*
Y2768648D01*
Y2768759D01*
Y2768796D01*
X1385826Y2769389D01*
X1385789Y2769944D01*
X1385567Y2770944D01*
X1385271Y2771796D01*
X1385123Y2772166D01*
X1384937Y2772499D01*
X1384789Y2772796D01*
X1384604Y2773092D01*
X1384456Y2773314D01*
X1384345Y2773499D01*
X1384197Y2773647D01*
X1384123Y2773759D01*
X1384086Y2773795D01*
X1384049Y2773833D01*
X1383678Y2774166D01*
X1383308Y2774462D01*
X1382938Y2774684D01*
X1382530Y2774907D01*
X1381753Y2775240D01*
X1380975Y2775462D01*
X1380308Y2775573D01*
X1380012Y2775647D01*
X1379753D01*
X1379568Y2775684D01*
X1379271D01*
X1378271Y2775647D01*
X1377383Y2775499D01*
X1376568Y2775277D01*
X1375864Y2775055D01*
X1375272Y2774832D01*
X1375013Y2774721D01*
X1374827Y2774610D01*
X1374679Y2774536D01*
X1374568Y2774462D01*
X1374494Y2774425D01*
X1374457D01*
Y2779017D01*
X1375272Y2779277D01*
X1376161Y2779462D01*
X1377012Y2779610D01*
X1377827Y2779684D01*
X1378568Y2779758D01*
X1378864D01*
X1379123Y2779795D01*
X1379642D01*
X1380567Y2779758D01*
D02*
G37*
G36*
X1405528Y2758390D02*
X1392900D01*
Y2762204D01*
X1400788D01*
Y2767019D01*
X1393900D01*
Y2770870D01*
X1400788D01*
Y2775573D01*
X1393418D01*
Y2779425D01*
X1405528D01*
Y2758390D01*
D02*
G37*
G36*
X1372717Y2775573D02*
X1366754D01*
Y2758390D01*
X1361977D01*
Y2775573D01*
X1355977D01*
Y2779425D01*
X1372717D01*
Y2775573D01*
D02*
G37*
G36*
X1330314Y2758390D02*
X1325573D01*
Y2766426D01*
X1324314D01*
X1323981Y2766389D01*
X1323722Y2766352D01*
X1323573Y2766278D01*
X1323499Y2766241D01*
X1323240Y2766093D01*
X1323018Y2765908D01*
X1322870Y2765797D01*
X1322796Y2765722D01*
X1322536Y2765463D01*
X1322314Y2765167D01*
X1322166Y2764945D01*
X1322092Y2764908D01*
Y2764871D01*
X1321833Y2764500D01*
X1321611Y2764167D01*
X1321537Y2764019D01*
X1321463Y2763908D01*
X1321389Y2763834D01*
Y2763797D01*
X1318129Y2758390D01*
X1312649D01*
X1316648Y2764612D01*
X1316870Y2764982D01*
X1317093Y2765278D01*
X1317241Y2765500D01*
X1317315Y2765537D01*
Y2765574D01*
X1317611Y2765945D01*
X1317870Y2766241D01*
X1318056Y2766463D01*
X1318092Y2766500D01*
X1318129Y2766537D01*
X1318426Y2766833D01*
X1318722Y2767093D01*
X1318907Y2767241D01*
X1318944Y2767315D01*
X1318981D01*
X1319278Y2767537D01*
X1319574Y2767685D01*
X1319796Y2767759D01*
X1319833Y2767796D01*
X1319870D01*
Y2767833D01*
X1319129Y2768093D01*
X1318796Y2768241D01*
X1318500Y2768389D01*
X1318278Y2768500D01*
X1318092Y2768611D01*
X1317981Y2768648D01*
X1317944Y2768685D01*
X1317352Y2769130D01*
X1317093Y2769352D01*
X1316870Y2769537D01*
X1316685Y2769722D01*
X1316574Y2769870D01*
X1316500Y2769944D01*
X1316463Y2769981D01*
X1316056Y2770574D01*
X1315759Y2771092D01*
X1315648Y2771314D01*
X1315574Y2771500D01*
X1315500Y2771611D01*
Y2771648D01*
X1315315Y2772388D01*
X1315241Y2772722D01*
X1315204Y2773018D01*
X1315167Y2773277D01*
Y2773499D01*
Y2773647D01*
Y2773684D01*
X1315204Y2774203D01*
X1315241Y2774684D01*
X1315352Y2775166D01*
X1315500Y2775573D01*
X1315871Y2776351D01*
X1316352Y2777018D01*
X1316944Y2777573D01*
X1317574Y2778017D01*
X1318278Y2778388D01*
X1318981Y2778721D01*
X1319685Y2778943D01*
X1320389Y2779128D01*
X1321018Y2779240D01*
X1321611Y2779351D01*
X1322092Y2779388D01*
X1322462Y2779425D01*
X1330314D01*
Y2758390D01*
D02*
G37*
G36*
X1467558Y2779758D02*
X1468373Y2779647D01*
X1469151Y2779499D01*
X1469892Y2779314D01*
X1470558Y2779091D01*
X1471188Y2778795D01*
X1471780Y2778536D01*
X1472299Y2778240D01*
X1472743Y2777943D01*
X1473150Y2777684D01*
X1473521Y2777425D01*
X1473817Y2777166D01*
X1474039Y2776981D01*
X1474187Y2776832D01*
X1474299Y2776721D01*
X1474336Y2776684D01*
X1474854Y2776092D01*
X1475298Y2775462D01*
X1475669Y2774796D01*
X1476002Y2774129D01*
X1476298Y2773463D01*
X1476521Y2772796D01*
X1476706Y2772129D01*
X1476854Y2771500D01*
X1476965Y2770907D01*
X1477076Y2770352D01*
X1477150Y2769870D01*
X1477187Y2769426D01*
Y2769092D01*
X1477224Y2768833D01*
Y2768685D01*
Y2768611D01*
X1477187Y2767759D01*
X1477113Y2766945D01*
X1476965Y2766167D01*
X1476780Y2765426D01*
X1476558Y2764760D01*
X1476335Y2764130D01*
X1476076Y2763575D01*
X1475780Y2763019D01*
X1475521Y2762574D01*
X1475261Y2762167D01*
X1475039Y2761797D01*
X1474817Y2761501D01*
X1474632Y2761278D01*
X1474484Y2761130D01*
X1474410Y2761019D01*
X1474373Y2760982D01*
X1473817Y2760464D01*
X1473225Y2760019D01*
X1472632Y2759612D01*
X1472003Y2759279D01*
X1471410Y2759019D01*
X1470780Y2758760D01*
X1470188Y2758575D01*
X1469632Y2758427D01*
X1469077Y2758316D01*
X1468595Y2758205D01*
X1468151Y2758130D01*
X1467744Y2758094D01*
X1467447D01*
X1467188Y2758057D01*
X1467003D01*
X1466151Y2758094D01*
X1465336Y2758205D01*
X1464596Y2758353D01*
X1463892Y2758538D01*
X1463189Y2758760D01*
X1462596Y2759019D01*
X1462003Y2759279D01*
X1461522Y2759575D01*
X1461041Y2759834D01*
X1460633Y2760093D01*
X1460300Y2760352D01*
X1460004Y2760575D01*
X1459781Y2760797D01*
X1459633Y2760945D01*
X1459522Y2761019D01*
X1459485Y2761056D01*
X1458967Y2761649D01*
X1458522Y2762278D01*
X1458152Y2762908D01*
X1457819Y2763575D01*
X1457522Y2764241D01*
X1457300Y2764908D01*
X1457115Y2765574D01*
X1456967Y2766204D01*
X1456856Y2766796D01*
X1456745Y2767315D01*
X1456671Y2767796D01*
X1456634Y2768241D01*
X1456597Y2768574D01*
Y2768833D01*
Y2769018D01*
Y2769055D01*
X1456634Y2769944D01*
X1456708Y2770759D01*
X1456856Y2771574D01*
X1457041Y2772314D01*
X1457226Y2772981D01*
X1457486Y2773647D01*
X1457708Y2774203D01*
X1457967Y2774759D01*
X1458226Y2775240D01*
X1458485Y2775647D01*
X1458745Y2776018D01*
X1458930Y2776314D01*
X1459115Y2776536D01*
X1459263Y2776684D01*
X1459337Y2776795D01*
X1459374Y2776832D01*
X1459930Y2777351D01*
X1460485Y2777795D01*
X1461078Y2778203D01*
X1461670Y2778536D01*
X1462300Y2778832D01*
X1462892Y2779091D01*
X1463485Y2779277D01*
X1464077Y2779425D01*
X1464596Y2779536D01*
X1465077Y2779647D01*
X1465522Y2779721D01*
X1465929Y2779758D01*
X1466225Y2779795D01*
X1466670D01*
X1467558Y2779758D01*
D02*
G37*
G36*
X1344793Y2779758D02*
X1345608Y2779647D01*
X1346386Y2779499D01*
X1347126Y2779314D01*
X1347793Y2779091D01*
X1348423Y2778795D01*
X1349015Y2778536D01*
X1349534Y2778240D01*
X1349978Y2777943D01*
X1350385Y2777684D01*
X1350756Y2777425D01*
X1351052Y2777166D01*
X1351274Y2776981D01*
X1351422Y2776832D01*
X1351534Y2776721D01*
X1351570Y2776684D01*
X1352089Y2776092D01*
X1352533Y2775462D01*
X1352904Y2774796D01*
X1353237Y2774129D01*
X1353533Y2773462D01*
X1353755Y2772796D01*
X1353941Y2772129D01*
X1354089Y2771500D01*
X1354200Y2770907D01*
X1354311Y2770352D01*
X1354385Y2769870D01*
X1354422Y2769426D01*
Y2769092D01*
X1354459Y2768833D01*
Y2768685D01*
Y2768611D01*
X1354422Y2767759D01*
X1354348Y2766945D01*
X1354200Y2766167D01*
X1354015Y2765426D01*
X1353793Y2764760D01*
X1353570Y2764130D01*
X1353311Y2763575D01*
X1353015Y2763019D01*
X1352756Y2762574D01*
X1352496Y2762167D01*
X1352274Y2761797D01*
X1352052Y2761501D01*
X1351867Y2761278D01*
X1351719Y2761130D01*
X1351645Y2761019D01*
X1351608Y2760982D01*
X1351052Y2760464D01*
X1350459Y2760019D01*
X1349867Y2759612D01*
X1349237Y2759279D01*
X1348645Y2759019D01*
X1348015Y2758760D01*
X1347423Y2758575D01*
X1346867Y2758427D01*
X1346312Y2758316D01*
X1345830Y2758205D01*
X1345386Y2758130D01*
X1344979Y2758094D01*
X1344682D01*
X1344423Y2758057D01*
X1344238D01*
X1343386Y2758094D01*
X1342572Y2758205D01*
X1341831Y2758353D01*
X1341127Y2758538D01*
X1340423Y2758760D01*
X1339831Y2759019D01*
X1339238Y2759279D01*
X1338757Y2759575D01*
X1338276Y2759834D01*
X1337868Y2760093D01*
X1337535Y2760352D01*
X1337239Y2760575D01*
X1337016Y2760797D01*
X1336868Y2760945D01*
X1336757Y2761019D01*
X1336720Y2761056D01*
X1336202Y2761649D01*
X1335757Y2762278D01*
X1335387Y2762908D01*
X1335054Y2763575D01*
X1334758Y2764241D01*
X1334535Y2764908D01*
X1334350Y2765574D01*
X1334202Y2766204D01*
X1334091Y2766796D01*
X1333980Y2767315D01*
X1333906Y2767796D01*
X1333869Y2768241D01*
X1333832Y2768574D01*
Y2768833D01*
Y2769018D01*
Y2769055D01*
X1333869Y2769944D01*
X1333943Y2770759D01*
X1334091Y2771574D01*
X1334276Y2772314D01*
X1334461Y2772981D01*
X1334720Y2773647D01*
X1334943Y2774203D01*
X1335202Y2774759D01*
X1335461Y2775240D01*
X1335720Y2775647D01*
X1335979Y2776017D01*
X1336165Y2776314D01*
X1336350Y2776536D01*
X1336498Y2776684D01*
X1336572Y2776795D01*
X1336609Y2776832D01*
X1337165Y2777351D01*
X1337720Y2777795D01*
X1338313Y2778203D01*
X1338905Y2778536D01*
X1339535Y2778832D01*
X1340127Y2779091D01*
X1340720Y2779277D01*
X1341312Y2779425D01*
X1341831Y2779536D01*
X1342312Y2779647D01*
X1342757Y2779721D01*
X1343164Y2779758D01*
X1343460Y2779795D01*
X1343905D01*
X1344793Y2779758D01*
D02*
G37*
G36*
X1444042Y2753701D02*
X1445042Y2753553D01*
X1445894Y2753368D01*
X1446672Y2753183D01*
X1447005Y2753072D01*
X1447301Y2752961D01*
X1447561Y2752850D01*
X1447746Y2752776D01*
X1447931Y2752702D01*
X1448042Y2752628D01*
X1448116Y2752591D01*
X1448153D01*
Y2748813D01*
X1447412Y2749258D01*
X1446672Y2749591D01*
X1445968Y2749850D01*
X1445339Y2749998D01*
X1444820Y2750109D01*
X1444413Y2750146D01*
X1444265Y2750183D01*
X1444042D01*
X1443487Y2750146D01*
X1443006Y2750072D01*
X1442561Y2749961D01*
X1442191Y2749776D01*
X1441895Y2749591D01*
X1441635Y2749369D01*
X1441413Y2749146D01*
X1441265Y2748924D01*
X1441117Y2748665D01*
X1441043Y2748443D01*
X1440895Y2748035D01*
Y2747850D01*
X1440858Y2747739D01*
Y2747665D01*
Y2747628D01*
X1440895Y2747147D01*
X1441043Y2746739D01*
X1441228Y2746369D01*
X1441487Y2746035D01*
X1441820Y2745776D01*
X1442154Y2745554D01*
X1442524Y2745369D01*
X1442894Y2745221D01*
X1443672Y2745036D01*
X1444005Y2744962D01*
X1444339Y2744925D01*
X1444598D01*
X1444783Y2744888D01*
X1446783D01*
Y2741332D01*
X1444820D01*
X1444079Y2741295D01*
X1443413Y2741221D01*
X1442820Y2741073D01*
X1442376Y2740962D01*
X1441969Y2740814D01*
X1441709Y2740666D01*
X1441524Y2740592D01*
X1441487Y2740555D01*
X1441080Y2740258D01*
X1440746Y2739925D01*
X1440524Y2739555D01*
X1440376Y2739221D01*
X1440302Y2738888D01*
X1440228Y2738629D01*
Y2738481D01*
Y2738407D01*
X1440265Y2737925D01*
X1440376Y2737481D01*
X1440561Y2737111D01*
X1440709Y2736814D01*
X1440895Y2736592D01*
X1441080Y2736407D01*
X1441191Y2736296D01*
X1441228Y2736259D01*
X1441635Y2735999D01*
X1442080Y2735815D01*
X1442561Y2735703D01*
X1443006Y2735629D01*
X1443376Y2735555D01*
X1443709Y2735518D01*
X1444005D01*
X1445042Y2735592D01*
X1445968Y2735740D01*
X1446783Y2735999D01*
X1447523Y2736296D01*
X1447820Y2736407D01*
X1448116Y2736555D01*
X1448338Y2736703D01*
X1448560Y2736814D01*
X1448709Y2736888D01*
X1448820Y2736962D01*
X1448894Y2737036D01*
X1448931D01*
Y2733000D01*
X1448116Y2732667D01*
X1447227Y2732408D01*
X1446375Y2732259D01*
X1445524Y2732111D01*
X1444783Y2732037D01*
X1444450D01*
X1444191Y2732000D01*
X1443635D01*
X1442931Y2732037D01*
X1442265Y2732074D01*
X1441672Y2732148D01*
X1441080Y2732259D01*
X1440561Y2732370D01*
X1440080Y2732519D01*
X1439635Y2732667D01*
X1439228Y2732852D01*
X1438858Y2733000D01*
X1438562Y2733148D01*
X1438302Y2733296D01*
X1438080Y2733407D01*
X1437895Y2733518D01*
X1437784Y2733593D01*
X1437710Y2733666D01*
X1437673D01*
X1437302Y2734000D01*
X1436969Y2734370D01*
X1436673Y2734741D01*
X1436414Y2735111D01*
X1436228Y2735518D01*
X1436043Y2735888D01*
X1435784Y2736629D01*
X1435636Y2737296D01*
X1435599Y2737592D01*
X1435562Y2737851D01*
X1435525Y2738036D01*
Y2738222D01*
Y2738296D01*
Y2738333D01*
X1435562Y2739036D01*
X1435710Y2739666D01*
X1435932Y2740221D01*
X1436154Y2740703D01*
X1436414Y2741110D01*
X1436599Y2741406D01*
X1436747Y2741555D01*
X1436821Y2741629D01*
X1437339Y2742073D01*
X1437895Y2742444D01*
X1438487Y2742740D01*
X1439043Y2742962D01*
X1439561Y2743110D01*
X1439969Y2743184D01*
X1440117Y2743221D01*
X1440228Y2743258D01*
X1440339D01*
Y2743332D01*
X1439598Y2743554D01*
X1438969Y2743851D01*
X1438413Y2744184D01*
X1437932Y2744591D01*
X1437525Y2744999D01*
X1437191Y2745406D01*
X1436895Y2745851D01*
X1436673Y2746295D01*
X1436488Y2746739D01*
X1436377Y2747109D01*
X1436266Y2747480D01*
X1436228Y2747813D01*
X1436191Y2748109D01*
X1436154Y2748295D01*
Y2748443D01*
Y2748480D01*
X1436191Y2748924D01*
X1436228Y2749331D01*
X1436451Y2750072D01*
X1436710Y2750702D01*
X1437043Y2751257D01*
X1437376Y2751665D01*
X1437673Y2751998D01*
X1437895Y2752183D01*
X1437932Y2752257D01*
X1437969D01*
X1438710Y2752739D01*
X1439487Y2753109D01*
X1440339Y2753368D01*
X1441117Y2753553D01*
X1441857Y2753665D01*
X1442154Y2753701D01*
X1442450D01*
X1442672Y2753738D01*
X1442968D01*
X1444042Y2753701D01*
D02*
G37*
G36*
X1467670Y2753146D02*
X1468151Y2752850D01*
X1468633Y2752553D01*
X1469003Y2752331D01*
X1469336Y2752183D01*
X1469521Y2752072D01*
X1469558Y2752035D01*
X1469595D01*
X1470780Y2751479D01*
X1471373Y2751257D01*
X1471891Y2751072D01*
X1472336Y2750924D01*
X1472669Y2750813D01*
X1472891Y2750739D01*
X1472928Y2750702D01*
X1472965D01*
Y2746776D01*
X1472521Y2746850D01*
X1472114Y2746924D01*
X1471965Y2746961D01*
X1471854D01*
X1471780Y2746998D01*
X1471743D01*
X1471299Y2747147D01*
X1470892Y2747258D01*
X1470743Y2747332D01*
X1470632Y2747369D01*
X1470558Y2747406D01*
X1470521D01*
X1470114Y2747591D01*
X1469743Y2747776D01*
X1469595Y2747850D01*
X1469484Y2747924D01*
X1469447Y2747961D01*
X1469410D01*
X1469040Y2748184D01*
X1468781Y2748406D01*
X1468595Y2748554D01*
X1468521Y2748628D01*
Y2732333D01*
X1463892D01*
Y2753849D01*
X1466670D01*
X1467670Y2753146D01*
D02*
G37*
G36*
X1488853Y2732333D02*
X1483483D01*
X1476224Y2753368D01*
X1481187D01*
X1485557Y2738777D01*
X1485668Y2738333D01*
X1485779Y2737925D01*
X1485853Y2737592D01*
X1485890Y2737259D01*
X1485964Y2737000D01*
Y2736814D01*
X1486001Y2736666D01*
Y2736629D01*
X1486112D01*
X1486186Y2737333D01*
X1486260Y2737666D01*
X1486334Y2737999D01*
X1486408Y2738296D01*
X1486445Y2738518D01*
X1486519Y2738666D01*
Y2738703D01*
X1490927Y2753368D01*
X1496037D01*
X1488853Y2732333D01*
D02*
G37*
G36*
X1455115Y2736740D02*
X1455523Y2736666D01*
X1455856Y2736555D01*
X1456115Y2736444D01*
X1456375Y2736333D01*
X1456523Y2736222D01*
X1456634Y2736148D01*
X1456671Y2736111D01*
X1456930Y2735851D01*
X1457115Y2735555D01*
X1457263Y2735259D01*
X1457337Y2735000D01*
X1457411Y2734741D01*
X1457448Y2734555D01*
Y2734407D01*
Y2734370D01*
X1457411Y2734000D01*
X1457337Y2733666D01*
X1457226Y2733407D01*
X1457078Y2733148D01*
X1456930Y2732926D01*
X1456819Y2732778D01*
X1456745Y2732704D01*
X1456708Y2732667D01*
X1456411Y2732444D01*
X1456078Y2732296D01*
X1455745Y2732148D01*
X1455449Y2732074D01*
X1455189Y2732037D01*
X1454967Y2732000D01*
X1454782D01*
X1454338Y2732037D01*
X1453967Y2732111D01*
X1453597Y2732185D01*
X1453338Y2732333D01*
X1453078Y2732444D01*
X1452930Y2732519D01*
X1452819Y2732592D01*
X1452782Y2732630D01*
X1452523Y2732889D01*
X1452338Y2733185D01*
X1452190Y2733481D01*
X1452116Y2733741D01*
X1452042Y2734000D01*
X1452005Y2734185D01*
Y2734333D01*
Y2734370D01*
X1452042Y2734741D01*
X1452116Y2735111D01*
X1452264Y2735407D01*
X1452375Y2735629D01*
X1452523Y2735851D01*
X1452671Y2735999D01*
X1452745Y2736074D01*
X1452782Y2736111D01*
X1453078Y2736333D01*
X1453412Y2736481D01*
X1453708Y2736629D01*
X1454004Y2736703D01*
X1454301Y2736740D01*
X1454523Y2736777D01*
X1454708D01*
X1455115Y2736740D01*
D02*
G37*
%LPC*%
G36*
X1491260Y2801741D02*
X1489408D01*
X1488741Y2801704D01*
X1488149Y2801593D01*
X1487668Y2801445D01*
X1487223Y2801223D01*
X1486853Y2801000D01*
X1486557Y2800704D01*
X1486297Y2800408D01*
X1486112Y2800111D01*
X1485964Y2799815D01*
X1485816Y2799519D01*
X1485742Y2799223D01*
X1485705Y2799001D01*
X1485668Y2798778D01*
X1485631Y2798630D01*
Y2798519D01*
Y2798482D01*
X1485668Y2797889D01*
X1485779Y2797408D01*
X1485964Y2796964D01*
X1486223Y2796593D01*
X1486519Y2796260D01*
X1486816Y2796001D01*
X1487149Y2795779D01*
X1487519Y2795593D01*
X1487853Y2795445D01*
X1488223Y2795371D01*
X1488519Y2795297D01*
X1488816Y2795223D01*
X1489075D01*
X1489260Y2795186D01*
X1491260D01*
Y2801741D01*
D02*
G37*
G36*
X1403750Y2801815D02*
X1401639D01*
X1401047Y2801778D01*
X1400528Y2801704D01*
X1400084Y2801556D01*
X1399714Y2801371D01*
X1399380Y2801185D01*
X1399121Y2800963D01*
X1398899Y2800704D01*
X1398714Y2800445D01*
X1398603Y2800186D01*
X1398492Y2799926D01*
X1398344Y2799519D01*
Y2799334D01*
X1398306Y2799185D01*
Y2799112D01*
Y2799074D01*
X1398344Y2798593D01*
X1398455Y2798149D01*
X1398603Y2797778D01*
X1398788Y2797482D01*
X1398973Y2797223D01*
X1399121Y2797001D01*
X1399232Y2796890D01*
X1399269Y2796852D01*
X1399640Y2796556D01*
X1400047Y2796334D01*
X1400454Y2796186D01*
X1400825Y2796075D01*
X1401195Y2796001D01*
X1401454Y2795964D01*
X1403750D01*
Y2801815D01*
D02*
G37*
G36*
X1468669Y2801630D02*
X1468447D01*
X1468003Y2801593D01*
X1467596Y2801556D01*
X1466818Y2801334D01*
X1466151Y2801074D01*
X1465633Y2800741D01*
X1465188Y2800408D01*
X1464892Y2800111D01*
X1464707Y2799889D01*
X1464633Y2799852D01*
Y2799815D01*
X1464151Y2799074D01*
X1463818Y2798260D01*
X1463559Y2797408D01*
X1463411Y2796593D01*
X1463300Y2795853D01*
X1463263Y2795556D01*
Y2795297D01*
X1463226Y2795038D01*
Y2794890D01*
Y2794779D01*
Y2794742D01*
X1463300Y2793631D01*
X1463448Y2792631D01*
X1463670Y2791816D01*
X1463929Y2791112D01*
X1464077Y2790816D01*
X1464225Y2790557D01*
X1464337Y2790335D01*
X1464448Y2790150D01*
X1464522Y2790002D01*
X1464596Y2789890D01*
X1464670Y2789853D01*
Y2789816D01*
X1464966Y2789520D01*
X1465262Y2789224D01*
X1465892Y2788779D01*
X1466522Y2788483D01*
X1467151Y2788261D01*
X1467707Y2788150D01*
X1467929Y2788076D01*
X1468151D01*
X1468336Y2788039D01*
X1468558D01*
X1469003Y2788076D01*
X1469410Y2788113D01*
X1470151Y2788335D01*
X1470817Y2788631D01*
X1471373Y2788965D01*
X1471817Y2789298D01*
X1472151Y2789557D01*
X1472336Y2789779D01*
X1472410Y2789816D01*
Y2789853D01*
X1472891Y2790594D01*
X1473262Y2791409D01*
X1473484Y2792224D01*
X1473669Y2793038D01*
X1473780Y2793742D01*
X1473817Y2794038D01*
Y2794297D01*
X1473854Y2794519D01*
Y2794668D01*
Y2794779D01*
Y2794816D01*
X1473780Y2795927D01*
X1473632Y2796890D01*
X1473410Y2797741D01*
X1473114Y2798445D01*
X1473002Y2798741D01*
X1472854Y2799001D01*
X1472743Y2799223D01*
X1472632Y2799408D01*
X1472558Y2799556D01*
X1472484Y2799667D01*
X1472410Y2799704D01*
Y2799741D01*
X1472114Y2800074D01*
X1471817Y2800371D01*
X1471484Y2800630D01*
X1471151Y2800852D01*
X1470521Y2801185D01*
X1469855Y2801407D01*
X1469299Y2801519D01*
X1469077Y2801556D01*
X1468855Y2801593D01*
X1468669Y2801630D01*
D02*
G37*
G36*
X1325573Y2775869D02*
X1323462D01*
X1322870Y2775833D01*
X1322351Y2775758D01*
X1321907Y2775610D01*
X1321537Y2775425D01*
X1321203Y2775240D01*
X1320944Y2775018D01*
X1320722Y2774759D01*
X1320537Y2774499D01*
X1320426Y2774240D01*
X1320314Y2773981D01*
X1320166Y2773573D01*
Y2773388D01*
X1320129Y2773240D01*
Y2773166D01*
Y2773129D01*
X1320166Y2772648D01*
X1320278Y2772203D01*
X1320426Y2771833D01*
X1320611Y2771537D01*
X1320796Y2771277D01*
X1320944Y2771055D01*
X1321055Y2770944D01*
X1321092Y2770907D01*
X1321463Y2770611D01*
X1321870Y2770388D01*
X1322277Y2770240D01*
X1322648Y2770129D01*
X1323018Y2770055D01*
X1323277Y2770018D01*
X1325573D01*
Y2775869D01*
D02*
G37*
G36*
X1467040Y2775685D02*
X1466818D01*
X1466373Y2775647D01*
X1465966Y2775610D01*
X1465188Y2775388D01*
X1464522Y2775129D01*
X1464003Y2774796D01*
X1463559Y2774462D01*
X1463263Y2774166D01*
X1463078Y2773944D01*
X1463003Y2773907D01*
Y2773870D01*
X1462522Y2773129D01*
X1462189Y2772314D01*
X1461929Y2771463D01*
X1461781Y2770648D01*
X1461670Y2769907D01*
X1461633Y2769611D01*
Y2769352D01*
X1461596Y2769092D01*
Y2768944D01*
Y2768833D01*
Y2768796D01*
X1461670Y2767685D01*
X1461818Y2766685D01*
X1462041Y2765871D01*
X1462300Y2765167D01*
X1462448Y2764871D01*
X1462596Y2764612D01*
X1462707Y2764389D01*
X1462818Y2764204D01*
X1462892Y2764056D01*
X1462966Y2763945D01*
X1463040Y2763908D01*
Y2763871D01*
X1463337Y2763575D01*
X1463633Y2763278D01*
X1464263Y2762834D01*
X1464892Y2762538D01*
X1465522Y2762315D01*
X1466077Y2762204D01*
X1466299Y2762130D01*
X1466522D01*
X1466707Y2762093D01*
X1466929D01*
X1467373Y2762130D01*
X1467781Y2762167D01*
X1468521Y2762390D01*
X1469188Y2762686D01*
X1469743Y2763019D01*
X1470188Y2763352D01*
X1470521Y2763611D01*
X1470706Y2763834D01*
X1470780Y2763871D01*
Y2763908D01*
X1471262Y2764648D01*
X1471632Y2765463D01*
X1471854Y2766278D01*
X1472039Y2767093D01*
X1472151Y2767796D01*
X1472188Y2768093D01*
Y2768352D01*
X1472225Y2768574D01*
Y2768722D01*
Y2768833D01*
Y2768870D01*
X1472151Y2769981D01*
X1472003Y2770944D01*
X1471780Y2771796D01*
X1471484Y2772499D01*
X1471373Y2772796D01*
X1471225Y2773055D01*
X1471114Y2773277D01*
X1471003Y2773463D01*
X1470928Y2773611D01*
X1470854Y2773722D01*
X1470780Y2773759D01*
Y2773796D01*
X1470484Y2774129D01*
X1470188Y2774425D01*
X1469855Y2774684D01*
X1469521Y2774907D01*
X1468892Y2775240D01*
X1468225Y2775462D01*
X1467670Y2775573D01*
X1467447Y2775610D01*
X1467225Y2775647D01*
X1467040Y2775685D01*
D02*
G37*
G36*
X1344275Y2775684D02*
X1344053D01*
X1343608Y2775647D01*
X1343201Y2775610D01*
X1342423Y2775388D01*
X1341757Y2775129D01*
X1341238Y2774796D01*
X1340794Y2774462D01*
X1340498Y2774166D01*
X1340312Y2773944D01*
X1340238Y2773907D01*
Y2773870D01*
X1339757Y2773129D01*
X1339424Y2772314D01*
X1339164Y2771463D01*
X1339016Y2770648D01*
X1338905Y2769907D01*
X1338868Y2769611D01*
Y2769352D01*
X1338831Y2769092D01*
Y2768944D01*
Y2768833D01*
Y2768796D01*
X1338905Y2767685D01*
X1339053Y2766685D01*
X1339276Y2765870D01*
X1339535Y2765167D01*
X1339683Y2764871D01*
X1339831Y2764612D01*
X1339942Y2764389D01*
X1340053Y2764204D01*
X1340127Y2764056D01*
X1340201Y2763945D01*
X1340275Y2763908D01*
Y2763871D01*
X1340572Y2763575D01*
X1340868Y2763278D01*
X1341497Y2762834D01*
X1342127Y2762538D01*
X1342757Y2762315D01*
X1343312Y2762204D01*
X1343534Y2762130D01*
X1343757D01*
X1343942Y2762093D01*
X1344164D01*
X1344608Y2762130D01*
X1345016Y2762167D01*
X1345756Y2762390D01*
X1346423Y2762686D01*
X1346978Y2763019D01*
X1347423Y2763352D01*
X1347756Y2763611D01*
X1347941Y2763834D01*
X1348015Y2763871D01*
Y2763908D01*
X1348497Y2764648D01*
X1348867Y2765463D01*
X1349089Y2766278D01*
X1349274Y2767093D01*
X1349386Y2767796D01*
X1349423Y2768093D01*
Y2768352D01*
X1349460Y2768574D01*
Y2768722D01*
Y2768833D01*
Y2768870D01*
X1349386Y2769981D01*
X1349237Y2770944D01*
X1349015Y2771796D01*
X1348719Y2772499D01*
X1348608Y2772796D01*
X1348460Y2773055D01*
X1348349Y2773277D01*
X1348237Y2773462D01*
X1348163Y2773611D01*
X1348089Y2773722D01*
X1348015Y2773759D01*
Y2773795D01*
X1347719Y2774129D01*
X1347423Y2774425D01*
X1347090Y2774684D01*
X1346756Y2774907D01*
X1346127Y2775240D01*
X1345460Y2775462D01*
X1344904Y2775573D01*
X1344682Y2775610D01*
X1344460Y2775647D01*
X1344275Y2775684D01*
D02*
G37*
%LPD*%
D37*
X1485003Y2588997D02*
X1487002Y2590996D01*
X1491001D01*
X1493000Y2588997D01*
Y2580999D01*
X1491001Y2579000D01*
X1487002D01*
X1485003Y2580999D01*
X1481004Y2579000D02*
Y2586997D01*
X1477005Y2590996D01*
X1473006Y2586997D01*
Y2579000D01*
Y2584998D01*
X1481004D01*
X1469008Y2579000D02*
Y2590996D01*
X1461010Y2579000D01*
Y2590996D01*
X1445016D02*
Y2579000D01*
X1437018D01*
X1433019Y2590996D02*
Y2582999D01*
X1429021Y2579000D01*
X1425022Y2582999D01*
Y2590996D01*
X1382003Y2841997D02*
X1384002Y2843996D01*
X1388001D01*
X1390000Y2841997D01*
Y2833999D01*
X1388001Y2832000D01*
X1384002D01*
X1382003Y2833999D01*
X1378004Y2832000D02*
Y2839997D01*
X1374005Y2843996D01*
X1370007Y2839997D01*
Y2832000D01*
Y2837998D01*
X1378004D01*
X1366008Y2832000D02*
Y2843996D01*
X1358010Y2832000D01*
Y2843996D01*
X1342016D02*
Y2832000D01*
X1334018D01*
X1330019Y2843996D02*
Y2835999D01*
X1326021Y2832000D01*
X1322022Y2835999D01*
Y2843996D01*
X1486003Y2841997D02*
X1488002Y2843996D01*
X1492001D01*
X1494000Y2841997D01*
Y2833999D01*
X1492001Y2832000D01*
X1488002D01*
X1486003Y2833999D01*
X1482004Y2832000D02*
Y2839997D01*
X1478005Y2843996D01*
X1474007Y2839997D01*
Y2832000D01*
Y2837998D01*
X1482004D01*
X1470008Y2832000D02*
Y2843996D01*
X1462010Y2832000D01*
Y2843996D01*
X1446015D02*
Y2832000D01*
X1438018D01*
X1434019Y2843996D02*
Y2835999D01*
X1430021Y2832000D01*
X1426022Y2835999D01*
Y2843996D01*
X1383003Y2587997D02*
X1385002Y2589996D01*
X1389001D01*
X1391000Y2587997D01*
Y2579999D01*
X1389001Y2578000D01*
X1385002D01*
X1383003Y2579999D01*
X1379004Y2578000D02*
Y2585997D01*
X1375005Y2589996D01*
X1371006Y2585997D01*
Y2578000D01*
Y2583998D01*
X1379004D01*
X1367008Y2578000D02*
Y2589996D01*
X1359010Y2578000D01*
Y2589996D01*
X1343016D02*
Y2578000D01*
X1335018D01*
X1331019Y2589996D02*
Y2581999D01*
X1327021Y2578000D01*
X1323022Y2581999D01*
Y2589996D01*
X1516003Y2738003D02*
X1514004Y2740002D01*
Y2744001D01*
X1516003Y2746000D01*
X1524001D01*
X1526000Y2744001D01*
Y2740002D01*
X1524001Y2738003D01*
X1526000Y2734004D02*
X1518003D01*
X1514004Y2730005D01*
X1518003Y2726006D01*
X1526000D01*
X1520002D01*
Y2734004D01*
X1526000Y2722008D02*
X1514004D01*
X1526000Y2714010D01*
X1514004D01*
Y2698015D02*
X1526000D01*
X1520002D01*
Y2690018D01*
X1514004D01*
X1526000D01*
X1514004Y2686019D02*
X1522001D01*
X1526000Y2682021D01*
X1522001Y2678022D01*
X1514004D01*
M02*
