G04*
G04 #@! TF.GenerationSoftware,Altium Limited,Altium Designer,21.6.1 (37)*
G04*
G04 Layer_Physical_Order=2*
G04 Layer_Color=16711680*
%FSLAX44Y44*%
%MOMM*%
G71*
G04*
G04 #@! TF.SameCoordinates,93393DDD-FF44-4B5B-861E-5619158EEE6E*
G04*
G04*
G04 #@! TF.FilePolarity,Positive*
G04*
G01*
G75*
%ADD25C,0.4000*%
%ADD26C,0.7000*%
%ADD29C,1.6000*%
%ADD30C,2.4000*%
G04:AMPARAMS|DCode=31|XSize=2.4mm|YSize=2.4mm|CornerRadius=0.6mm|HoleSize=0mm|Usage=FLASHONLY|Rotation=0.000|XOffset=0mm|YOffset=0mm|HoleType=Round|Shape=RoundedRectangle|*
%AMROUNDEDRECTD31*
21,1,2.4000,1.2000,0,0,0.0*
21,1,1.2000,2.4000,0,0,0.0*
1,1,1.2000,0.6000,-0.6000*
1,1,1.2000,-0.6000,-0.6000*
1,1,1.2000,-0.6000,0.6000*
1,1,1.2000,0.6000,0.6000*
%
%ADD31ROUNDEDRECTD31*%
%ADD32C,0.7000*%
G36*
X1531000Y2808666D02*
Y2605000D01*
X1500000Y2574000D01*
X1308000D01*
X1275000Y2607000D01*
Y2809000D01*
X1311000Y2845000D01*
X1494666Y2845000D01*
X1531000Y2808666D01*
D02*
G37*
%LPC*%
G36*
X1300178Y2776026D02*
X1297646Y2775692D01*
X1295286Y2774715D01*
X1293260Y2773160D01*
X1291705Y2771134D01*
X1290728Y2768774D01*
X1290394Y2766242D01*
X1290728Y2763710D01*
X1291705Y2761350D01*
X1293260Y2759324D01*
X1295286Y2757769D01*
X1297646Y2756792D01*
X1300178Y2756458D01*
X1302710Y2756792D01*
X1305070Y2757769D01*
X1307096Y2759324D01*
X1308651Y2761350D01*
X1309628Y2763710D01*
X1309962Y2766242D01*
X1309628Y2768774D01*
X1308651Y2771134D01*
X1307096Y2773160D01*
X1305070Y2774715D01*
X1302710Y2775692D01*
X1300178Y2776026D01*
D02*
G37*
G36*
X1400000Y2699818D02*
X1396424Y2699348D01*
X1393091Y2697967D01*
X1390229Y2695771D01*
X1388033Y2692909D01*
X1386653Y2689576D01*
X1386182Y2686000D01*
X1386653Y2682424D01*
X1388033Y2679091D01*
X1390229Y2676229D01*
X1393091Y2674033D01*
X1396424Y2672653D01*
X1400000Y2672182D01*
X1403576Y2672653D01*
X1406909Y2674033D01*
X1409771Y2676229D01*
X1411967Y2679091D01*
X1413347Y2682424D01*
X1413818Y2686000D01*
X1413347Y2689576D01*
X1411967Y2692909D01*
X1409771Y2695771D01*
X1406909Y2697967D01*
X1403576Y2699348D01*
X1400000Y2699818D01*
D02*
G37*
G36*
X1299670Y2666044D02*
X1297138Y2665710D01*
X1294778Y2664733D01*
X1292752Y2663178D01*
X1291197Y2661152D01*
X1290220Y2658792D01*
X1289886Y2656260D01*
X1290220Y2653728D01*
X1291197Y2651368D01*
X1292752Y2649342D01*
X1294778Y2647787D01*
X1297138Y2646810D01*
X1299670Y2646476D01*
X1302202Y2646810D01*
X1304562Y2647787D01*
X1306588Y2649342D01*
X1308143Y2651368D01*
X1309120Y2653728D01*
X1309454Y2656260D01*
X1309120Y2658792D01*
X1308143Y2661152D01*
X1306588Y2663178D01*
X1304562Y2664733D01*
X1302202Y2665710D01*
X1299670Y2666044D01*
D02*
G37*
G36*
X1462000Y2788302D02*
X1459971Y2787898D01*
X1458251Y2786749D01*
X1457102Y2785029D01*
X1456698Y2783000D01*
X1457102Y2780971D01*
X1458251Y2779251D01*
X1459971Y2778102D01*
X1461958Y2777706D01*
X1473728Y2765938D01*
Y2721063D01*
X1462959Y2710294D01*
X1460971Y2709898D01*
X1459251Y2708749D01*
X1458102Y2707029D01*
X1457698Y2705000D01*
X1458102Y2702971D01*
X1459227Y2701286D01*
Y2647563D01*
X1449710Y2638045D01*
X1448971Y2637898D01*
X1447251Y2636749D01*
X1446102Y2635029D01*
X1445698Y2633000D01*
X1446102Y2630971D01*
X1447251Y2629251D01*
X1448971Y2628102D01*
X1451000Y2627698D01*
X1453029Y2628102D01*
X1454749Y2629251D01*
X1455898Y2630971D01*
X1456302Y2633000D01*
X1456142Y2633806D01*
X1465668Y2643333D01*
X1465668Y2643333D01*
X1466158Y2644066D01*
X1466485Y2644556D01*
X1466772Y2646000D01*
Y2701286D01*
X1467898Y2702971D01*
X1468294Y2704958D01*
X1480168Y2716832D01*
X1480168Y2716832D01*
X1480658Y2717566D01*
X1480985Y2718056D01*
X1481272Y2719500D01*
Y2767500D01*
X1481272Y2767500D01*
X1480985Y2768944D01*
X1480168Y2770168D01*
X1467294Y2783041D01*
X1466898Y2785029D01*
X1465749Y2786749D01*
X1464029Y2787898D01*
X1462000Y2788302D01*
D02*
G37*
G36*
X1486000Y2801302D02*
X1383000D01*
X1380971Y2800898D01*
X1379251Y2799749D01*
X1378251Y2798749D01*
X1364754Y2785251D01*
X1347050D01*
X1345021Y2784848D01*
X1343301Y2783699D01*
X1318251Y2758648D01*
X1317102Y2756928D01*
X1316698Y2754900D01*
Y2622000D01*
X1317102Y2619971D01*
X1318251Y2618251D01*
X1319971Y2617102D01*
X1322000Y2616698D01*
X1428000D01*
X1430029Y2617102D01*
X1431749Y2618251D01*
X1432749Y2619251D01*
X1433898Y2620971D01*
X1434302Y2623000D01*
X1433898Y2625029D01*
X1432749Y2626749D01*
X1431029Y2627898D01*
X1429000Y2628302D01*
X1426971Y2627898D01*
X1426078Y2627302D01*
X1327302D01*
Y2752704D01*
X1349246Y2774648D01*
X1366950D01*
X1368979Y2775051D01*
X1370699Y2776201D01*
X1385196Y2790698D01*
X1486000D01*
X1488029Y2791102D01*
X1489749Y2792251D01*
X1490898Y2793971D01*
X1491302Y2796000D01*
X1490898Y2798029D01*
X1489749Y2799749D01*
X1488029Y2800898D01*
X1486000Y2801302D01*
D02*
G37*
%LPD*%
D25*
X1477500Y2719500D02*
Y2767500D01*
X1462000Y2783000D02*
X1477500Y2767500D01*
X1463000Y2705000D02*
X1477500Y2719500D01*
X1451000Y2633000D02*
Y2634000D01*
X1463000Y2646000D01*
Y2705000D01*
D26*
X1428000Y2622000D02*
X1429000Y2623000D01*
X1322000Y2622000D02*
X1428000D01*
X1322000D02*
Y2754900D01*
X1347050Y2779950D01*
X1382000Y2795000D02*
X1383000Y2796000D01*
X1366950Y2779950D02*
X1382000Y2795000D01*
X1383000Y2796000D02*
X1486000D01*
X1347050Y2779950D02*
X1366950D01*
D29*
X1299670Y2656260D02*
D03*
X1300178Y2766242D02*
D03*
D30*
X1400000Y2686000D02*
D03*
D31*
Y2735000D02*
D03*
D32*
X1510000Y2800000D02*
D03*
X1522500Y2775000D02*
D03*
X1510000Y2750000D02*
D03*
X1522500Y2725000D02*
D03*
X1510000Y2700000D02*
D03*
X1522500Y2675000D02*
D03*
X1510000Y2650000D02*
D03*
X1522500Y2625000D02*
D03*
X1510000Y2600000D02*
D03*
X1497500Y2825000D02*
D03*
Y2775000D02*
D03*
X1485000Y2750000D02*
D03*
X1497500Y2725000D02*
D03*
Y2675000D02*
D03*
X1485000Y2650000D02*
D03*
X1497500Y2625000D02*
D03*
X1485000Y2600000D02*
D03*
X1472500Y2825000D02*
D03*
X1460000Y2750000D02*
D03*
X1472500Y2625000D02*
D03*
X1447500Y2825000D02*
D03*
Y2775000D02*
D03*
X1435000Y2750000D02*
D03*
Y2700000D02*
D03*
X1422500Y2825000D02*
D03*
X1410000Y2750000D02*
D03*
X1397500Y2825000D02*
D03*
X1385000Y2750000D02*
D03*
X1397500Y2725000D02*
D03*
X1385000Y2650000D02*
D03*
X1372500Y2825000D02*
D03*
X1360000Y2750000D02*
D03*
X1372500Y2725000D02*
D03*
X1360000Y2700000D02*
D03*
X1372500Y2675000D02*
D03*
X1360000Y2650000D02*
D03*
X1347500Y2825000D02*
D03*
X1335000Y2800000D02*
D03*
Y2750000D02*
D03*
X1347500Y2725000D02*
D03*
X1335000Y2700000D02*
D03*
X1347500Y2675000D02*
D03*
X1335000Y2650000D02*
D03*
Y2600000D02*
D03*
X1322500Y2825000D02*
D03*
X1310000Y2800000D02*
D03*
X1322500Y2775000D02*
D03*
X1310000Y2750000D02*
D03*
Y2700000D02*
D03*
Y2600000D02*
D03*
X1462000Y2783000D02*
D03*
X1429000Y2623000D02*
D03*
X1322000Y2622000D02*
D03*
X1486000Y2796000D02*
D03*
X1382000Y2795000D02*
D03*
X1451000Y2633000D02*
D03*
X1463000Y2705000D02*
D03*
M02*
